<svg xmlns="http://www.w3.org/2000/svg" viewBox="0 0 100 100">
  <rect width="100" height="100" rx="22" fill="#1c1a17"/>
  <g transform="translate(5, 25) scale(0.665)">
    <path fill="#74d14c" d="m64.904 53.248 8.394 4.613 17.184-9.895a.834.834 0 0 1 .579-.309.827.827 0 0 1 .712.313l17.581 10.121c.014.008.025.02.037.027.026.018.05.033.074.053a.965.965 0 0 1 .112.112c.02.023.036.049.053.074.009.014.02.023.038.061.014.027.025.055.036.082a.634.634 0 0 1 .044.148.532.532 0 0 1 .014.078c.003.027.002.053.002.08 0 .025.001.051-.002.078a.532.532 0 0 1-.014.078.634.634 0 0 1-.018.078c-.007.023-.017.047-.026.07-.011.027-.022.055-.047.105-.005.01-.014.016-.02.023a.717.717 0 0 1-.096.125c-.012.014-.021.025-.035.037a.817.817 0 0 1-.158.119L91.537 69.777a.823.823 0 0 1-.821 0L37.458 38.143 1.573 58.801 37.43 78.514l16.318-9.395-7.517-4.17-8.388 4.828a.815.815 0 0 1-.821 0c-.815-.451-16.51-9.107-17.285-9.568-.514-.305-1.114-.572-1.021-1.271.111-.842 1.209-1.262 1.861-1.637 2.014-1.16 4.028-2.318 6.042-3.479l10.17-5.855a.834.834 0 0 1 .579-.309.83.83 0 0 1 .713.313l53.053 30.545 35.863-19.709L91.125 38.15 64.904 53.248z"/>
  </g>
</svg>
