<svg width="1492" height="730" viewBox="0 0 1492 730" fill="none" xmlns="http://www.w3.org/2000/svg">
<g clip-path="url(#clip0_471_5574)">
<path d="M674.227 38.56L679.351 44.7157L669.444 47.4517L661.246 51.2135L641.09 53.9495L622.985 58.3953L614.786 67.9711L621.277 77.2047L626.059 88.1484L619.227 97.382L621.96 105.932L618.885 113.798L601.121 113.114L611.711 127.477L601.121 133.291L596.338 146.287L600.096 159.624L593.947 165.78L586.773 163.728L573.109 166.806L572.425 172.62H558.419L550.562 185.273L553.295 203.741L530.748 212.974L517.425 210.923L514.35 215.71L502.736 212.974L484.63 216.394L451.835 205.109L465.158 185.273L461.4 171.252L446.71 167.49L442.611 153.468L433.387 136.027L438.853 124.057L430.312 120.637L432.021 104.564L434.07 77.2047L454.226 85.7544L467.549 82.6766L468.915 72.7589L482.58 69.681L491.462 62.8412L490.779 45.3997L505.127 40.9538L506.152 33.4301L516.058 39.2439L521.524 39.9279H531.773L546.462 44.7157L552.612 47.1097L564.227 40.2699L571.401 44.3737L574.475 34.4561L585.407 34.7981L587.456 31.7202L586.773 22.8284L592.581 15.3047L603.854 20.0926L603.513 26.9324L609.32 27.9583L612.395 46.4257L621.618 53.6075L626.742 48.8196L634.258 46.7677L642.799 36.85L655.78 38.56H674.227Z" fill="#CEF060" stroke="#5a7a00" stroke-width="0.2" stroke-linecap="round" stroke-linejoin="round"/>
<path d="M377.705 295.394L382.146 312.835H372.581V327.199L376.339 330.277L368.14 334.723L368.823 343.614L364.382 352.506V361.398L360.966 366.186L303.233 355.242L294.009 332.671L292.984 327.883L296.059 326.515L297.425 332.671L311.773 329.251L327.488 329.935L339.103 330.619L350.376 315.571L363.016 301.55L373.264 287.87L377.705 295.394Z" fill="#CEF060" stroke="#5a7a00" stroke-width="0.2" stroke-linecap="round" stroke-linejoin="round"/>
<path d="M154.28 9.14854L148.131 9.83251L138.565 -2.82108L137.882 -6.24097H130.025L123.535 -12.0548L120.118 -11.7128L111.92 -17.8686L97.5714 -23.3404L97.2298 -33.9421L92.7891 -41.4659L116.702 -44.8857L121.485 -39.4139L129 -35.652L126.609 -30.1802L137.541 -22.6565L133.783 -15.4747L142.665 -9.66086L151.205 -6.24097L154.28 9.14854Z" fill="#CEF060" stroke="#5a7a00" stroke-width="0.2" stroke-linecap="round" stroke-linejoin="round"/>
<path d="M148.134 9.83357L135.152 6.75569L124.22 -3.16203L120.121 -11.7118L123.537 -12.0537L130.028 -6.23991H137.885L138.568 -2.82002L148.134 9.83357Z" fill="#CEF060" stroke="#5a7a00" stroke-width="0.2" stroke-linecap="round" stroke-linejoin="round"/>
<path d="M169.658 -48.306L178.198 -57.1977L190.155 -45.9121L202.453 -30.1805L210.993 -29.1546L217.484 -23.3408L203.136 -21.6308L203.477 -4.53136L202.111 2.99238L196.304 8.12222L199.037 18.7239L194.595 20.0919L181.272 8.46423L185.372 -2.13745L178.881 -8.63522L172.39 -6.92528L154.285 9.1482L151.21 -6.24131L142.67 -9.6612L133.788 -15.475L137.546 -22.6568L126.614 -30.1805L129.005 -35.6524L121.489 -39.4142L116.707 -44.8861L120.465 -48.6479L134.812 -42.1502L144.719 -41.1242L146.769 -43.5181L135.496 -55.4877L139.595 -58.2236L144.719 -57.5397L159.409 -44.5441L167.608 -42.8341L169.658 -48.306Z" fill="#CEF060" stroke="#5a7a00" stroke-width="0.2" stroke-linecap="round" stroke-linejoin="round"/>
<path d="M1075.97 376.102L1078.02 391.834L1070.84 388.414L1074.6 406.197L1067.43 394.912L1064.69 383.626L1059.57 373.024L1050 360.371L1032.24 359.345L1035.31 368.578L1031.21 380.548L1022.33 376.102L1020.28 380.206L1014.48 377.812L1006.96 375.76L1001.49 357.635L992.612 341.219L993.637 327.882L980.997 322.068L984.071 314.202L994.32 305.994L978.605 294.367L982.705 279.319L999.444 288.895L1008.67 289.921L1012.77 305.311L1031.21 308.388L1048.64 308.046L1060.25 311.808L1054.79 330.276L1046.59 331.644L1042.49 343.955L1054.79 355.583L1055.81 341.219H1060.93L1075.97 376.102Z" fill="#CEF060" stroke="#5a7a00" stroke-width="0.2" stroke-linecap="round" stroke-linejoin="round"/>
<path d="M1035.65 250.251L1044.53 257.433L1046.24 270.771L1030.87 271.455L1014.81 270.087L1003.88 273.507L985.089 264.957L983.723 260.853L992.605 244.438L1001.49 238.966L1016.18 243.754L1026.08 244.438L1035.65 250.251Z" fill="#CEF060" stroke="#5a7a00" stroke-width="0.2" stroke-linecap="round" stroke-linejoin="round"/>
<path d="M1423.05 449.973L1408.36 460.574L1391.62 453.735L1388.2 434.925L1395.72 425.007L1415.53 418.852L1426.81 419.194L1432.27 427.743L1425.44 437.319L1423.05 449.973Z" fill="#CEF060" stroke="#5a7a00" stroke-width="0.2" stroke-linecap="round" stroke-linejoin="round"/>
<path d="M1502.99 -221.694L1533.73 -206.305L1554.23 -186.47H1580.19L1589.08 -194.677L1612.65 -201.175L1617.09 -181.682L1616.06 -173.816L1625.63 -150.561L1627.68 -129.357L1604.11 -133.119L1594.2 -125.596L1610.26 -107.128L1623.58 -81.479L1615.04 -81.1369L1621.53 -69.8513L1602.74 -82.8469V-70.5353L1580.88 -61.3016L1590.44 -49.674L1574.73 -50.6999L1562.43 -57.5397L1558.67 -41.8082L1545.35 -30.1806L1538.17 -16.159L1516.65 -10.0032L1508.45 0.256432L1492.06 6.41225L1496.5 -3.84743L1488.64 -12.3972L1495.47 -27.1027L1480.1 -38.3883L1468.48 -30.8645L1456.19 -15.475L1451.74 -1.45351L1434.66 -0.427536L1430.22 9.83214L1446.62 24.5377L1463.02 28.2996L1467.8 37.8752L1485.22 44.373L1498.2 28.6416L1518.36 37.1913L1530.32 37.8752L1538.17 49.1609L1515.29 55.3167L1511.87 67.2863L1498.89 78.23L1495.81 93.6195L1520.07 105.589L1535.78 127.134L1554.57 147.312L1573.36 164.069L1578.83 180.485L1569.26 186.641L1577.46 198.268L1590.78 205.108L1593.52 222.891L1593.86 240.333L1584.29 242.385L1577.12 265.982L1569.26 295.051L1557.65 321.042L1535.78 341.22L1513.24 360.029L1492.4 362.423L1482.49 371.999L1474.63 365.159L1466.09 375.761L1441.5 387.046L1421.68 390.124L1419.29 413.379L1408.7 414.747L1401.19 398.674L1404.26 390.466L1377.61 383.284L1369.42 387.046L1349.26 381.232L1338.67 372.341L1339.69 359.687L1321.59 355.583L1311 347.375L1296.99 359.003L1278.89 361.739L1263.86 361.397L1254.63 366.869L1245.41 369.947L1252.24 395.254L1241.99 394.57L1239.26 389.44L1237.55 380.206L1224.57 386.704L1215.69 382.6L1200.31 374.393L1203.05 356.267L1190.41 351.821L1182.21 331.644L1163.08 335.406L1160.69 309.415L1175.04 290.947L1171.96 272.822L1167.52 256.064L1158.3 250.935L1149.07 237.939L1138.48 239.649L1117.64 236.229L1121.74 226.995L1109.44 213.316L1098.51 222.549L1081.77 217.42L1063.33 231.099L1050 247.515L1035.66 250.251L1026.09 244.437L1016.18 243.753L1001.49 238.965L992.612 244.437L983.73 260.852L978.605 243.411L968.015 248.199L945.81 245.805L923.605 241.017L906.524 231.099L891.152 226.995L882.611 216.394L871.338 213.316L849.474 198.952L833.077 192.112L826.586 197.242L797.207 181.853L776.027 168.173L765.095 143.892L779.101 146.97L777.051 135.684L766.803 124.399L764.07 106.615L737.765 80.6239L705.312 72.0742L695.405 54.9747L679.349 44.715L674.225 38.5593L668.075 26.2476L666.367 17.6979L653.728 12.5681L648.603 14.962L638.013 -5.55737L641.771 -10.3452L637.672 -15.475L651.678 -25.7347L662.61 -30.1806L682.424 -27.1027L684.473 -41.1242L706.337 -43.5181L709.753 -52.4099L733.325 -64.0375L734.008 -68.8254L728.2 -81.479L738.107 -86.9508L708.045 -124.57L739.132 -133.119L745.964 -137.907L742.548 -176.552L779.443 -169.37L784.909 -179.288L776.368 -200.491L789.349 -202.543L795.84 -216.907L801.648 -218.617L812.921 -203.569L832.394 -192.283L860.406 -184.418L880.22 -166.976L885.002 -142.011L895.251 -132.435L917.456 -128.673L942.053 -125.938L969.382 -112.258L980.997 -109.864L998.078 -90.0287L1014.13 -77.0331L1033.26 -77.717L1071.87 -72.5872L1093.73 -75.6651L1112.86 -72.5872L1144.97 -59.2497H1166.15L1177.43 -52.7519L1192.46 -64.3795L1217.05 -71.9032L1243.02 -72.5872L1259.76 -80.111L1266.59 -91.7386L1274.79 -99.2624L1268.3 -106.444L1258.39 -114.652L1260.1 -128.673L1271.03 -126.622L1291.18 -122.176L1302.12 -133.803L1323.98 -142.011L1328.42 -156.375L1336.96 -162.53L1360.19 -165.266L1375.22 -162.872L1372.49 -170.396L1347.89 -185.444L1330.13 -192.283L1321.59 -184.418L1302.8 -187.838L1294.94 -185.102L1285.38 -193.651L1284.35 -215.197L1282.3 -231.27L1307.58 -223.062L1322.61 -236.4L1316.12 -245.976L1315.44 -268.205L1319.88 -275.045L1311.34 -286.672L1298.7 -291.46L1304.51 -302.062L1321.93 -305.824L1343.11 -306.508L1372.49 -300.01L1392.99 -292.486L1419.29 -271.283L1432.27 -262.049L1447.65 -249.054L1468.83 -228.534L1502.99 -221.694Z" fill="#CEF060" stroke="#5a7a00" stroke-width="0.2" stroke-linecap="round" stroke-linejoin="round"/>
<path d="M149.84 608.314L143.35 620.284L138.909 616.18L134.468 617.89L123.536 617.548L122.853 610.708L121.145 604.552L127.294 594.293L133.785 584.717L141.983 586.769L147.791 581.297L152.574 588.137L152.232 597.028L141.642 602.5L149.84 608.314Z" fill="#CEF060" stroke="#5a7a00" stroke-width="0.2" stroke-linecap="round" stroke-linejoin="round"/>
<path d="M-46.247 174.672L-32.9239 206.819L-30.5328 212.29L-34.9735 221.182L-37.3651 237.598L-41.4643 249.225L-45.5636 252.987L-52.3959 245.805L-61.6198 236.23L-77.6756 204.767L-79.3837 206.819L-69.8187 229.732L-56.4955 251.961L-39.7562 286.16L-31.8989 298.13L-25.0666 310.441L-6.6196 334.723L-10.0358 338.484L-8.66921 352.848L14.5609 372.683L18.3186 377.129H-57.1786H-130.626H-206.807L-210.223 296.078L-214.664 218.104L-221.496 200.321L-217.738 186.983L-221.155 177.408L-215.347 166.806L-190.751 166.464L-172.304 172.278L-153.515 178.775L-144.632 182.195L-130.968 175.356L-123.794 169.2L-107.738 167.148L-94.4149 169.884L-88.2656 180.827L-84.5079 173.646L-69.4767 178.775L-54.7875 180.143L-46.247 174.672Z" fill="#CEF060" stroke="#5a7a00" stroke-width="0.2" stroke-linecap="round" stroke-linejoin="round"/>
<path d="M147.794 581.296L141.986 586.768L133.788 584.716L126.955 577.534L118.415 564.88L109.532 557.699L104.408 550.175L87.3273 541.283L74.0046 540.941L69.2219 536.495L58.2899 541.625L45.9917 531.707L40.8675 548.123L18.3208 543.335L15.9297 534.785L22.762 502.296L23.7866 487.933L29.5944 481.093L43.2591 477.331L52.4825 465.02L64.7807 490.327L71.2715 510.504L82.2031 521.106L109.532 541.967L120.806 554.279L131.738 567.274L137.887 574.798L147.794 581.296Z" fill="#CEF060" stroke="#5a7a00" stroke-width="0.2" stroke-linecap="round" stroke-linejoin="round"/>
<path d="M74.0022 540.943L87.3249 541.285L104.406 550.176L109.53 557.7L118.412 564.882L126.953 577.536L133.785 584.717L127.294 594.293L121.145 604.553L122.853 610.708L123.537 617.548L134.468 617.89L138.909 616.18L143.35 620.284L139.251 627.808L146.766 640.12L154.282 650.721L161.797 658.587L225.68 684.578L242.077 684.236L188.785 750.24L163.847 751.266L146.766 766.656L134.468 766.998L129.344 774.179H116.021L108.164 766.656L90.3995 775.889L84.9337 785.123L71.9521 783.071L67.5114 780.677L63.0702 781.361L56.9213 781.019L32.3247 762.552H18.66L12.1692 755.37L11.8277 743.058L1.92072 739.296L-10.0359 715.357L-18.9178 710.227L-22.334 701.336L-32.5825 690.734L-44.5391 689.024L-38.0483 676.712L-27.7998 676.028L-25.0667 669.531L-25.7501 652.431V649.695L-20.6259 626.782L-11.7439 620.626L-10.0359 611.735L-2.17851 594.635L9.09501 584.033L15.9273 562.146L18.3185 543.337L40.8651 548.125L45.9894 531.709L58.2875 541.627L69.2195 536.497L74.0022 540.943Z" fill="#CEF060" stroke="#5a7a00" stroke-width="0.2" stroke-linecap="round" stroke-linejoin="round"/>
<path d="M826.589 197.243L817.024 207.503L813.95 228.022L833.763 236.23L853.577 246.832L880.224 259.143L906.528 262.221L919.509 273.165L934.199 275.217L957.77 280.347L973.485 280.005L973.826 271.455L968.702 257.434L968.019 248.2L978.609 243.412L983.733 260.853L985.1 264.957L1003.89 273.507L1014.82 270.087L1030.88 271.455L1046.25 270.771L1044.54 257.434L1035.66 250.252L1050.01 247.516L1063.33 231.1L1081.78 217.421L1098.52 222.551L1109.45 213.317L1121.75 226.997L1117.65 236.23L1138.49 239.65L1141.9 247.858L1136.09 251.962L1140.88 265.299L1126.53 261.537L1105.35 276.585L1108.42 289.239L1101.59 307.706L1102.62 318.308L1097.15 336.433L1081.44 331.303L1084.51 354.216L1081.09 361.74L1084.51 370.974L1075.97 376.104L1060.94 341.221H1055.81L1054.79 355.584L1042.49 343.957L1046.59 331.645L1054.79 330.277L1060.26 311.81L1048.64 308.048L1031.22 308.39L1012.77 305.312L1008.67 289.923L999.447 288.897L982.708 279.321L978.609 294.368L994.323 305.996L984.075 314.204L981 322.07L993.64 327.883L992.615 341.221L1001.5 357.636L1006.96 375.762L1005.26 383.97L992.273 383.628L969.727 388.073L972.802 404.489L964.603 417.485L938.981 432.532L920.876 458.181L907.894 472.203L890.814 486.566L891.838 496.484L882.956 501.956L866.559 509.822L857.676 510.848L853.577 527.605L860.068 556.332L862.459 574.458L855.968 595.319L858.36 632.596L848.453 633.622L840.596 650.379L847.086 657.903L829.664 664.059L823.857 678.764L816.341 685.262L797.21 664.743L786.62 633.964L778.08 611.735L770.564 601.475L758.95 580.271L752.117 552.912L747.335 539.233L727.179 509.138L715.223 466.389L706.341 438.346L703.607 411.671L697.8 391.151L671.495 404.489L657.831 401.753L630.16 375.078L638.359 367.212L631.868 358.662L607.613 339.853L618.545 325.147H659.881L653.732 306.338L641.775 295.394L636.992 278.295L623.328 268.719L640.067 245.464L662.272 247.174L677.645 224.261L685.16 202.031L698.483 179.802L695.067 164.07L708.049 151.417L690.626 140.815L680.719 125.768L669.446 106.616L676.278 97.0406L705.316 102.512L724.788 99.0924L737.769 80.625L764.074 106.616L766.807 124.4L777.055 135.685L779.105 146.971L765.098 143.893L776.03 168.174L797.21 181.854L826.589 197.243Z" fill="#CEF060" stroke="#5a7a00" stroke-width="0.2" stroke-linecap="round" stroke-linejoin="round"/>
<path d="M148.137 9.83245L154.287 9.14848L172.392 -6.92501L178.883 -8.63496L185.374 -2.13718L181.274 8.46451L194.597 20.0922L199.038 18.7242L207.579 35.1397L225.684 39.5855L240.374 50.5292L266.678 54.2911L294.008 48.4773L294.691 43.3474L309.722 39.2435L319.971 26.59L332.269 27.2739L339.101 23.1701L352.424 25.222L374.971 36.5076L389.66 38.9016L414.599 58.0529L428.263 59.0789L434.07 77.2043L432.021 104.563L430.313 120.637L438.853 124.057L433.387 136.027L442.611 153.468L446.711 167.489L461.4 171.251L465.158 185.273L451.835 205.108L462.766 216.736L472.332 230.074L491.804 239.649L495.22 258.801L504.444 262.563L507.518 272.48L481.897 284.108L478.139 309.415L441.928 302.917L420.748 297.787L399.226 295.052L387.952 268.034L378.387 264.273L364.381 268.034L346.958 278.636L323.045 271.454L302.207 254.355L283.418 248.199L268.386 227.338L250.622 198.269L241.057 201.688L228.417 194.507L222.61 203.056L210.654 191.429L208.945 179.801H203.138L203.821 163.728L191.865 147.312L167.609 135.001L151.895 114.139L153.603 97.0398L161.461 89.516L158.386 76.8623L145.404 70.0225L129.349 44.0314L116.367 26.59L118.759 19.7502L108.852 -5.21506L120.125 -11.7129L124.224 -3.16316L135.156 6.75456L148.137 9.83245Z" fill="#CEF060" stroke="#5a7a00" stroke-width="0.2" stroke-linecap="round" stroke-linejoin="round"/>
<path d="M129.341 44.0321L145.397 70.0232L158.379 76.8629L161.453 89.5166L153.596 97.0404L151.888 114.14L167.602 135.001L191.857 147.313L203.814 163.728L203.13 179.802H208.938L210.646 191.429L222.603 203.057L211.329 202.031L198.69 199.979L187.416 221.182L152.571 219.472L95.1796 175.356L65.8006 159.966L42.5705 153.81L31.9805 127.135L69.5583 104.222L72.9745 77.889L68.8753 61.8154L78.0987 56.3436L85.2726 42.664L92.4465 39.2441L113.969 42.3221L121.142 47.7939L129.341 44.0321Z" fill="#CEF060" stroke="#5a7a00" stroke-width="0.2" stroke-linecap="round" stroke-linejoin="round"/>
<path d="M42.5749 153.81L39.5002 157.23L3.97241 168.173L24.4694 190.403L19.0032 193.823L16.6121 201.346L2.60585 204.424L-1.15185 212.29L-8.32614 219.13L-29.5062 215.368L-30.5312 212.29L-24.382 177.407L-25.7485 168.858L-23.6989 162.36L-25.065 148.68L-22.6739 141.84L-1.15185 150.732L31.9848 127.135L42.5749 153.81Z" fill="#CEF060" stroke="#5a7a00" stroke-width="0.2" stroke-linecap="round" stroke-linejoin="round"/>
<path d="M1380.69 548.124L1386.84 562.829L1387.18 589.162L1356.43 606.262L1366 619.257L1345.84 620.967L1330.13 629.859L1313.73 626.781L1304.85 615.154L1292.89 592.582L1285.72 565.907L1296.31 547.782L1320.56 543.678L1338.67 546.756L1355.75 555.305L1362.58 540.258L1380.69 548.124Z" fill="#CEF060" stroke="#5a7a00" stroke-width="0.2" stroke-linecap="round" stroke-linejoin="round"/>
<path d="M211.331 202.03L216.455 211.606L215.43 216.736L223.629 233.151L210.306 233.836L204.499 223.234L187.418 221.182L198.691 199.979L211.331 202.03Z" fill="#CEF060" stroke="#5a7a00" stroke-width="0.2" stroke-linecap="round" stroke-linejoin="round"/>
<path d="M1380.69 548.125L1362.59 540.259L1355.75 555.306L1338.67 546.757L1343.8 536.839L1342.43 518.371L1324.33 499.22L1319.88 477.333L1302.8 459.549L1288.11 458.181L1285.38 465.705L1274.45 466.389L1267.96 462.627L1249.85 475.623L1246.44 455.787L1247.8 432.874L1234.82 431.848L1231.75 418.511L1222.52 411.671L1225.26 403.805L1239.26 389.441L1242 394.571L1252.24 395.255L1245.41 369.948L1254.64 366.87L1268.3 384.312L1280.26 404.147H1303.49L1313.73 423.298L1302.46 429.112L1298.36 436.978L1323.3 450.316L1342.77 476.307L1357.8 495.458L1374.54 510.848L1381.38 526.237L1380.69 548.125Z" fill="#CEF060" stroke="#5a7a00" stroke-width="0.2" stroke-linecap="round" stroke-linejoin="round"/>
<path d="M889.099 723.905L872.701 729.035L862.794 711.593L858.012 680.13L864.844 644.563L878.85 656.533L888.415 671.923L899.006 694.836L896.956 717.749L889.099 723.905Z" fill="#CEF060" stroke="#5a7a00" stroke-width="0.2" stroke-linecap="round" stroke-linejoin="round"/>
<path d="M1239.26 389.441L1225.25 403.804L1222.52 411.67L1212.27 416.8L1202.71 426.375L1189.39 427.401L1184.26 450.999L1176.74 455.103L1188.7 474.254L1202.71 490.327L1212.61 505.033L1207.83 523.842L1201.68 527.946L1207.83 538.89L1222.52 556.331L1225.94 568.643L1226.62 578.903L1235.84 599.08L1226.96 619.599L1219.45 642.171L1216.37 625.755L1220.81 608.998L1213.3 596.002L1212.61 572.063L1203.73 560.435L1194.51 534.444L1187.68 506.743L1177.09 488.276L1166.15 499.561L1146.34 514.951L1135.07 513.241L1122.77 508.111L1125.84 480.752L1119.01 460.232L1100.91 434.925L1101.93 427.06L1090.32 423.982L1074.6 406.198L1070.84 388.415L1078.02 391.835L1075.97 376.103L1084.51 370.973L1081.09 361.74L1084.51 354.216L1081.43 331.303L1097.15 336.432L1102.61 318.307L1101.59 307.705L1108.42 289.238L1105.35 276.584L1126.53 261.537L1140.88 265.299L1136.09 251.961L1141.9 247.857L1138.48 239.649L1149.07 237.939L1158.3 250.935L1167.52 256.065L1171.96 272.822L1175.04 290.948L1160.69 309.415L1163.08 335.406L1182.21 331.644L1190.41 351.822L1203.05 356.268L1200.32 374.393L1215.69 382.601L1224.57 386.705L1237.55 380.207L1239.26 389.441Z" fill="#CEF060" stroke="#5a7a00" stroke-width="0.2" stroke-linecap="round" stroke-linejoin="round"/>
<path d="M1293.57 723.565L1298.36 725.617L1310.31 738.954L1318.85 753.66L1320.9 768.365L1319.2 778.283L1321.25 785.807L1322.95 798.802L1330.13 804.958L1337.99 824.452V831.633L1324.32 833.343L1305.53 816.928L1282.3 799.486L1279.57 788.201L1267.95 773.495L1264.54 755.37L1257.02 743.4L1258.39 727.327L1253.61 718.093L1256.68 714.331L1273.08 723.907L1275.13 735.192L1287.77 732.456L1293.57 723.565Z" fill="#CEF060" stroke="#5a7a00" stroke-width="0.2" stroke-linecap="round" stroke-linejoin="round"/>
<path d="M1600.35 769.39L1583.27 765.628H1561.06L1555.26 790.593L1548.08 798.117L1539.2 828.554L1523.48 833.342L1505.04 827.186L1495.81 829.238L1484.54 840.182L1472.24 838.814L1459.6 843.26L1446.28 830.606L1442.86 815.901L1457.21 823.424L1471.9 819.32L1475.32 800.853L1483.52 796.749L1506.75 791.961L1519.73 774.52L1528.61 760.84L1538.17 772.126L1541.93 764.602L1551.16 765.286L1551.5 751.265L1551.84 740.321L1565.85 725.273L1574.73 708.174L1582.58 707.832L1593.17 719.118L1594.54 728.693L1607.52 734.849L1623.92 741.347L1623.24 749.897L1610.26 750.923L1614.01 761.866L1600.35 769.39Z" fill="#CEF060" stroke="#5a7a00" stroke-width="0.2" stroke-linecap="round" stroke-linejoin="round"/>
<path d="M968.014 248.2L968.697 257.433L973.822 271.455L973.48 280.005L957.766 280.346L934.194 275.217L919.505 273.165L906.523 262.221L880.219 259.143L853.573 246.832L833.759 236.23L813.945 228.022L817.02 207.503L826.585 197.243L833.076 192.113L849.474 198.953L871.337 213.317L882.61 216.395L891.151 226.996L906.523 231.1L923.604 241.018L945.809 245.806L968.014 248.2Z" fill="#CEF060" stroke="#5a7a00" stroke-width="0.2" stroke-linecap="round" stroke-linejoin="round"/>
<path d="M335.342 494.431L327.826 479.042L310.062 442.791L365.746 420.904L374.628 377.129L364.38 361.397V352.506L368.82 343.614L368.137 334.722L376.336 330.276L372.578 327.199V312.835H382.144L392.392 327.883L403.666 335.748L417.672 338.826L429.287 342.588L439.194 355.242L445.001 362.423L451.834 365.501L452.517 370.289L446.709 383.285L444.318 389.441L436.802 396.622L430.995 411.67L422.455 410.302L419.038 415.774L416.647 426.717L420.405 441.423L418.696 444.159H410.156L398.883 452.367L397.858 462.968L393.759 467.756L381.802 467.414L374.97 472.886L375.653 481.778L366.771 487.934L356.181 485.882L343.883 493.405L335.342 494.431Z" fill="#CEF060" stroke="#5a7a00" stroke-width="0.2" stroke-linecap="round" stroke-linejoin="round"/>
<path d="M377.699 295.394L373.258 287.87L378.041 280.688L380.432 282.398L379.749 291.632L377.699 295.394Z" fill="#CEF060" stroke="#5a7a00" stroke-width="0.2" stroke-linecap="round" stroke-linejoin="round"/>
<path d="M737.765 80.6247L724.784 99.0921L705.312 102.512L676.274 97.0403L669.442 106.616L680.715 125.767L690.622 140.815L708.045 151.417L695.063 164.07L698.479 179.802L685.156 202.031L677.641 224.26L662.268 247.174L640.063 245.464L623.323 268.719L636.988 278.295L641.771 295.394L653.727 306.338L659.877 325.147H618.541L607.609 339.853L593.261 334.381L585.746 318.649L569.006 301.892L534.845 305.996L504.099 306.338L478.136 309.416L481.894 284.108L507.515 272.481L504.441 262.563L495.217 258.801L491.801 239.65L472.329 230.074L462.764 216.737L451.832 205.109L484.627 216.395L502.733 212.975L514.348 215.711L517.422 210.923L530.745 212.975L553.292 203.741L550.559 185.273L558.416 172.62H572.423L573.106 166.806L586.771 163.728L593.945 165.78L600.094 159.624L596.336 146.287L601.118 133.291L611.708 127.477L601.118 113.114L618.883 113.798L621.957 105.932L619.224 97.3822L626.057 88.1485L621.274 77.2048L614.783 67.9712L622.982 58.3954L641.088 53.9496L661.243 51.2136L669.442 47.4518L679.349 44.7158L695.405 54.9755L705.312 72.075L737.765 80.6247Z" fill="#CEF060" stroke="#5a7a00" stroke-width="0.2" stroke-linecap="round" stroke-linejoin="round"/>
<path d="M288.541 319.334L283.417 321.044L277.268 316.598L274.535 300.524L278.293 289.239L283.417 286.845L289.566 293.685L291.274 306.338L288.541 319.334Z" fill="#CEF060" stroke="#5a7a00" stroke-width="0.2" stroke-linecap="round" stroke-linejoin="round"/>
<path d="M187.421 221.182L204.502 223.234L210.309 233.836L223.632 233.152L232.856 252.303L242.763 257.091L246.862 264.957L260.527 274.191L262.918 283.082L261.552 290.606L264.626 297.788L270.776 303.944L273.85 311.125L277.266 316.597L283.415 321.043L288.539 319.333L292.981 327.883L294.005 332.671L303.229 355.242L360.962 366.186L364.379 361.398L374.627 377.129L365.745 420.904L310.061 442.791L255.744 451.341L238.663 461.259L226.707 484.172L217.825 487.934L212.701 480.752L205.527 481.778L186.738 479.384L182.98 477.332L161.117 477.674L155.992 479.726L147.793 474.254L143.352 484.856L146.085 494.09L137.887 501.271L134.812 491.696L128.663 485.198L126.955 476.306L116.364 468.44L105.091 449.973L98.6006 432.19L84.5944 417.142L76.054 413.38L62.0478 392.519L58.9731 377.471V364.476L46.675 339.853L37.1096 331.303L26.8611 326.857L19.6872 314.203L20.3703 309.416L14.2214 297.788L8.41367 293L-0.126748 276.585L-13.1079 259.143L-23.6984 244.096H-32.9219L-31.2138 232.126L-30.8723 224.26L-29.5057 215.369L-8.32563 219.13L-1.15135 212.291L2.60635 204.425L16.6126 201.347L19.0037 193.823L24.4699 190.403L3.9729 168.174L39.5007 157.23L42.5753 153.811L65.8055 159.966L95.1844 175.356L152.576 219.472L187.421 221.182Z" fill="#CEF060" stroke="#5a7a00" stroke-width="0.2" stroke-linecap="round" stroke-linejoin="round"/>
<path d="M18.3128 543.336L15.9216 562.145L9.08928 584.032L-2.18424 594.634L-10.0416 611.733L-11.7497 620.625L-20.6316 626.781L-25.7559 649.694V652.43L-28.4886 651.746L-28.147 640.803L-30.8801 633.279L-40.7871 624.729L-43.8613 608.997L-41.8117 592.582L-50.6936 591.214L-52.0602 596.002L-63.6752 597.37L-58.551 603.526L-56.8429 616.863L-67.0914 628.833L-76.3149 644.564L-86.2219 646.958L-102.62 634.305L-109.793 638.751L-111.502 644.906L-121.409 649.352L-122.092 653.798H-141.222L-143.955 649.352L-157.961 648.326L-164.794 652.088L-170.259 650.378L-180.166 637.383L-183.583 631.569L-197.589 634.647L-202.713 644.564L-207.154 664.4L-213.987 668.504L-219.794 670.898L-221.502 669.872L-227.993 663.374L-229.359 656.534L-226.626 647.642V638.409L-237.9 624.729L-240.291 615.495V610.023L-247.465 603.526L-247.807 590.872L-252.247 582.322L-258.738 583.69L-257.03 575.483L-252.247 566.591L-254.639 557.357L-248.49 550.517L-252.589 545.387L-248.148 532.05L-239.608 515.634L-223.21 517.344L-226.968 430.137V420.903H-205.105L-206.813 377.129H-130.632H-57.1844H18.3128L25.4866 398.674L21.3874 402.436L25.4866 425.349L34.027 451.34L41.5429 456.812L52.4744 465.02L43.2509 477.332L29.5863 481.094L23.7785 487.933L22.7539 502.297L15.9216 534.786L18.3128 543.336Z" fill="#CEF060" stroke="#5a7a00" stroke-width="0.2" stroke-linecap="round" stroke-linejoin="round"/>
<path d="M-25.7431 652.43L-25.0596 669.529L-27.7927 676.027L-38.0412 676.711L-44.532 689.023L-32.5754 690.733L-22.3269 701.334L-18.9108 710.226L-10.0288 715.356L1.92778 739.295L-11.0534 753.659L-22.6685 766.654L-34.6251 776.914H-48.2897L-63.6625 782.044L-75.9606 776.914L-83.818 783.07L-101.24 768.364L-106.023 759.13L-116.613 763.576L-125.495 762.208L-130.619 765.97L-139.501 763.234L-151.458 745.109L-154.533 738.269L-169.222 729.377L-174.005 716.382L-182.203 706.806L-195.527 695.521L-195.868 688.339L-206.459 679.447L-219.781 670.897L-213.974 668.503L-207.142 664.4L-202.7 644.564L-197.576 634.646L-183.57 631.569L-180.154 637.382L-170.247 650.378L-164.781 652.088L-157.949 648.326L-143.942 649.352L-141.209 653.798H-122.079L-121.396 649.352L-111.489 644.906L-109.781 638.75L-102.607 634.304L-86.2091 646.958L-76.3022 644.564L-67.0787 628.833L-56.8302 616.863L-58.5382 603.525L-63.6625 597.37L-52.0474 596.002L-50.6809 591.214L-41.7989 592.582L-43.8486 608.997L-40.7743 624.729L-30.8674 633.278L-28.1343 640.802L-28.4758 651.746L-25.7431 652.43Z" fill="#CEF060" stroke="#5a7a00" stroke-width="0.2" stroke-linecap="round" stroke-linejoin="round"/>
<path d="M31.9789 127.134L-1.15775 150.732L-22.6798 141.84H-23.0213L-20.9717 138.42L-22.3383 129.528L-19.2636 117.559L-10.0401 109.009L-14.1394 100.459L-22.6798 99.4333L-26.4375 82.6758L-23.0213 73.4421L-18.5806 68.6543L-14.4809 63.8664L-15.1644 51.8968L-8.67358 56.0007L10.4569 49.8449L20.7054 53.9488H35.7366L55.2091 45.7411L65.1156 46.083L85.2711 42.6631L78.0972 56.3426L68.8737 61.8145L72.973 77.888L69.5568 104.221L31.9789 127.134Z" fill="#CEF060" stroke="#5a7a00" stroke-width="0.2" stroke-linecap="round" stroke-linejoin="round"/>
<path d="M1338.68 546.756L1320.57 543.678L1296.32 547.782L1285.73 565.907L1292.9 592.582L1274.79 582.323L1258.4 583.007L1259.42 565.565H1242.68L1243.37 589.846L1235.85 621.993L1231.07 641.487L1233.46 657.218L1246.1 657.902L1255.32 678.08L1259.76 696.889L1271.38 709.543L1282.99 711.937L1293.58 723.564L1287.78 732.456L1275.14 735.192L1273.09 723.906L1256.69 714.331L1253.61 718.092L1245.76 709.885L1241.66 698.941L1230.73 686.629L1220.82 676.028L1218.43 689.023L1213.99 676.712L1215.35 663.032L1219.45 642.171L1226.97 619.599L1235.85 599.08L1226.63 578.903L1225.94 568.643L1222.53 556.331L1207.84 538.89L1201.69 527.946L1207.84 523.842L1212.62 505.033L1202.71 490.327L1188.71 474.254L1176.75 455.103L1184.27 450.999L1189.39 427.401L1202.71 426.375L1212.28 416.8L1222.53 411.67L1231.75 418.51L1234.82 431.847L1247.81 432.873L1246.44 455.787L1249.86 475.622L1267.96 462.626L1274.45 466.388L1285.38 465.704L1288.12 458.18L1302.81 459.548L1319.89 477.332L1324.33 499.219L1342.43 518.371L1343.8 536.838L1338.68 546.756Z" fill="#CEF060" stroke="#5a7a00" stroke-width="0.2" stroke-linecap="round" stroke-linejoin="round"/>
<path d="M585.405 -22.9989L580.623 -16.5012L560.126 -19.9211L562.175 -7.60943L580.964 -9.31938L605.219 -2.13764L638.014 -5.55753L648.604 14.9618L653.729 12.5679L666.368 17.6977L668.076 26.2475L674.226 38.5591H655.778L642.797 36.8492L634.257 46.7668L626.741 48.8188L621.617 53.6066L612.393 46.4248L609.319 27.9574L603.511 26.9315L603.853 20.0917L592.579 15.3038L586.772 22.8276L587.455 31.7193L585.405 34.7972L574.474 34.4552L571.399 44.3729L564.225 40.2691L552.61 47.1088L546.461 44.7149L550.902 22.4856L542.703 6.07014L528.355 0.940297L530.405 -8.63541L545.436 -7.60943L550.561 -19.5791L552.269 -33.6006L574.474 -38.7305L573.79 -28.4708L578.231 -22.657L585.405 -22.9989Z" fill="#CEF060" stroke="#5a7a00" stroke-width="0.2" stroke-linecap="round" stroke-linejoin="round"/>
<path d="M521.524 39.9275L516.058 39.2435L506.151 33.4297L505.126 40.9534L490.778 45.3993L491.461 62.8408L482.579 69.6806L468.915 72.7585L467.548 82.6761L454.225 85.754L434.07 77.2043L428.262 59.0789L414.598 58.0529L389.659 38.9016L374.97 36.5076L352.423 25.222L339.1 23.17L332.268 27.2738L319.97 26.5899L309.721 39.2435L294.69 43.3474L288.199 27.9579L286.15 5.04459L270.435 -2.47917L271.802 -17.1847L259.845 -18.5527L259.503 -37.0201L277.609 -31.5483L291.616 -38.388L275.56 -51.7256L267.361 -64.0372L254.379 -58.5654L256.429 -42.4919L247.547 -56.5135L253.696 -64.0372L272.827 -68.4831L286.15 -62.3273L302.547 -45.2278L311.429 -46.2538L331.585 -46.5958L325.777 -57.5395L338.759 -65.0632L350.373 -77.7168L377.361 -66.0892L383.852 -48.9897L391.709 -44.5439L410.498 -45.5698L417.672 -41.466L432.361 -18.8947L456.617 -3.84715L470.964 6.41252L492.486 17.0142L518.791 26.5899L521.524 39.9275Z" fill="#CEF060" stroke="#5a7a00" stroke-width="0.2" stroke-linecap="round" stroke-linejoin="round"/>
<path d="M54.8668 -51.3835L73.6557 -52.4095L92.7866 -41.4658L97.2273 -33.9421L97.5689 -23.3404L111.917 -17.8685L120.116 -11.7128L108.842 -5.21493L118.749 19.7503L116.358 26.5901L129.339 44.0316L121.141 47.7934L113.967 42.3216L92.4446 39.2436L85.2708 42.6635L65.1153 46.0834L55.2087 45.7415L35.7363 53.9492H20.7051L10.4566 49.8453L-8.67384 56.0012L-15.1646 51.8973L-14.4812 63.8669L-18.5808 68.6547L-23.0216 73.4426L-30.8789 63.5249L-25.0712 55.3172L-36.0032 57.3691L-51.7175 52.2393L-62.649 64.8928L-89.9784 67.2868L-106.035 55.6592L-125.507 54.9752L-128.923 63.8669L-141.221 66.6028L-159.668 54.9752L-179.482 55.3172L-192.463 33.4299L-206.812 21.4602L-199.979 4.36078L-212.277 -6.24091L-194.855 -27.1023L-167.526 -27.7863L-162.06 -44.5437L-127.898 -41.4658L-108.767 -55.4874L-88.9538 -61.6432L-59.9164 -62.3271L-26.4377 -46.9376L0.550058 -38.3879L20.3636 -41.8078L36.0779 -39.7559L54.8668 -51.3835Z" fill="#CEF060" stroke="#5a7a00" stroke-width="0.2" stroke-linecap="round" stroke-linejoin="round"/>
<path d="M570.721 -67.1148L576.529 -65.0629L566.281 -51.0414L581.995 -42.8336L592.926 -48.3054L617.523 -36.6778L599.417 -20.9463L585.411 -22.9982L578.237 -22.6562L573.796 -28.47L574.479 -38.7297L552.274 -33.5999L550.566 -19.5783L545.442 -7.60867L530.411 -8.63464L528.361 0.941068L542.709 6.07091L550.908 22.4864L546.467 44.7157L531.777 39.9278H521.529L518.796 26.5903L492.491 17.0146L470.969 6.41287L456.622 -3.84681L432.366 -18.8943L417.677 -41.4656L410.503 -45.5695L391.714 -44.5435L383.857 -48.9894L377.366 -66.0889L350.378 -77.7165L338.764 -65.0629L325.782 -57.5391L331.589 -46.5955L311.434 -46.2535L290.254 -126.279L331.248 -138.933L335.006 -137.223L366.435 -121.833L382.832 -113.625L405.379 -94.132L424.851 -97.2099L454.23 -98.9199L480.193 -83.1883L485.317 -61.301L494.199 -60.959L502.74 -43.1756L525.628 -42.4916L533.485 -32.2319H540.318L543.392 -47.9634L561.839 -63.011L570.721 -67.1148Z" fill="#CEF060" stroke="#5a7a00" stroke-width="0.2" stroke-linecap="round" stroke-linejoin="round"/>
<path d="M1369.41 387.048L1347.21 405.515L1334.57 426.376L1332.52 441.766L1350.62 464.679L1372.83 493.406L1392.3 507.086L1406.31 524.527L1419.97 565.224L1421.34 603.869L1406.65 618.232L1385.81 632.596L1371.46 650.721L1348.92 671.241L1341.06 657.219L1345.16 642.172L1330.13 629.86L1345.84 620.968L1366 619.258L1356.43 606.263L1387.18 589.163L1386.83 562.83L1380.69 548.125L1381.37 526.237L1374.54 510.848L1357.8 495.458L1342.77 476.307L1323.29 450.316L1298.36 436.978L1302.46 429.112L1313.73 423.299L1303.48 404.147H1280.25L1268.29 384.312L1254.63 366.87L1263.85 361.399L1278.88 361.741L1296.99 359.005L1311 347.377L1321.59 355.585L1339.69 359.689L1338.67 372.342L1349.26 381.234L1369.41 387.048Z" fill="#CEF060" stroke="#5a7a00" stroke-width="0.2" stroke-linecap="round" stroke-linejoin="round"/>
<path d="M335.344 494.431L321.68 500.245L318.605 510.163V517.687L300.158 526.92L270.095 537.18L254.039 552.57L245.499 553.938L239.692 552.57L228.76 561.803L216.803 565.907L200.747 566.933L195.964 568.301L192.207 574.115L187.082 575.825L184.349 581.297L174.784 580.613L168.977 583.691L155.312 582.665L149.846 569.669V557.699L146.43 551.202L141.989 535.128L135.84 526.236L139.598 524.868L137.206 514.951L139.256 510.847L137.889 501.271L146.088 494.089L143.355 484.856L147.796 474.254L155.995 479.726L161.12 477.674L182.983 477.332L186.741 479.384L205.53 481.778L212.704 480.752L217.828 487.934L226.71 484.172L238.667 461.259L255.747 451.341L310.065 442.791L327.828 479.042L335.344 494.431Z" fill="#CEF060" stroke="#5a7a00" stroke-width="0.2" stroke-linecap="round" stroke-linejoin="round"/>
<path d="M124.562 896.952L113.289 878.827L112.605 798.801L129.345 774.178L134.469 766.996L146.767 766.654L163.848 751.265L188.786 750.239L242.078 684.235L225.68 684.577L161.798 658.586L154.283 650.72L146.767 640.119L139.252 627.807L143.351 620.283L149.842 608.314L156.333 612.417L160.432 621.651L169.656 630.885H179.221L196.985 625.071L217.824 622.677L234.563 615.837L244.128 614.469L250.96 610.365L261.892 609.682L268.041 608.997L276.581 605.92L286.83 603.526L295.37 596.002H302.886L303.569 602.158L302.203 614.811L302.886 626.439L299.128 634.305L294.346 658.244L286.147 682.525L274.873 710.568L259.159 742.715L243.103 767.338L220.556 797.433L201.426 815.217L172.73 837.104L154.624 853.52L133.444 880.195L129.003 891.822L124.562 896.952Z" fill="#CEF060" stroke="#5a7a00" stroke-width="0.2" stroke-linecap="round" stroke-linejoin="round"/>
<path d="M268.045 283.767L269.07 284.109L269.753 283.767L271.119 286.161L270.778 286.845L271.119 289.922V292.316L270.436 293.684L270.094 292.316L268.045 289.58L268.386 288.213L267.703 285.819V284.451L268.045 283.767Z" fill="#CEF060" stroke="#5a7a00" stroke-width="0.2" stroke-linecap="round" stroke-linejoin="round"/>
</g>
<defs>
<clipPath id="clip0_471_5574">
<rect width="1492" height="730" fill="white"/>
</clipPath>
</defs>
</svg>
