<svg xmlns:xlink="http://www.w3.org/1999/xlink" xmlns="http://www.w3.org/2000/svg" viewBox="-3.427 33.143 135.424 50.373" height="50.373" width="135.424">
                <defs>
                    <linearGradient id="d1079ae1-8bab-45f9-af5b-5c1515b82559_comp-kbgakxea_r_comp-ljzcio3u" y2=".5" x2="1" y1=".5" x1="0">
                        <stop stop-color="#74d14c" offset="0%"></stop>
                        <stop stop-color="#74d14c" offset="100%"></stop>
                    </linearGradient>
                <linearGradient id="d1079ae1-8bab-45f9-af5b-5c1515b82559_comp-kbgakxea_r_comp-ljzcio3u" y2=".5" x2="1" y1=".5" x1="0">
                        <stop stop-color="#74d14c" offset="0%"></stop>
                        <stop stop-color="#74d14c" offset="100%"></stop>
                    </linearGradient><linearGradient id="d1079ae1-8bab-45f9-af5b-5c1515b82559_comp-kbgakxea_r_comp-ljzcio3u" y2=".5" x2="1" y1=".5" x1="0">
                        <stop stop-color="#74d14c" offset="0%"></stop>
                        <stop stop-color="#74d14c" offset="100%"></stop>
                    </linearGradient></defs>
                <path fill="url(&quot;#d1079ae1-8bab-45f9-af5b-5c1515b82559_comp-kbgakxea_r_comp-ljzcio3u&quot;)" d="m64.904 53.248 8.394 4.613 17.184-9.895a.834.834 0 0 1 .579-.309.827.827 0 0 1 .712.313l17.581 10.121c.014.008.025.02.037.027.026.018.05.033.074.053a.965.965 0 0 1 .112.112c.02.023.036.049.053.074.009.014.02.023.038.061.014.027.025.055.036.082a.634.634 0 0 1 .044.148.532.532 0 0 1 .014.078c.003.027.002.053.002.08 0 .025.001.051-.002.078a.532.532 0 0 1-.014.078.634.634 0 0 1-.018.078c-.007.023-.017.047-.026.07-.011.027-.022.055-.047.105-.005.01-.014.016-.02.023a.717.717 0 0 1-.096.125c-.012.014-.021.025-.035.037a.817.817 0 0 1-.158.119L91.537 69.777a.823.823 0 0 1-.821 0L37.458 38.143 1.573 58.801 37.43 78.514l16.318-9.395-7.517-4.17-8.388 4.828a.815.815 0 0 1-.821 0c-.815-.451-16.51-9.107-17.285-9.568-.514-.305-1.114-.572-1.021-1.271.111-.842 1.209-1.262 1.861-1.637 2.014-1.16 4.028-2.318 6.042-3.479l10.17-5.855a.834.834 0 0 1 .579-.309.83.83 0 0 1 .713.313l53.053 30.545 35.863-19.709L91.125 38.15 64.904 53.248z"></path>
            </svg>