<svg viewBox="0 0 829 172" xmlns:xlink="http://www.w3.org/1999/xlink" xmlns="http://www.w3.org/2000/svg" height="172" width="829" overflow="visible">
                <defs>
                    <linearGradient id="cedc773d-c992-4d66-a6d1-f3ef41e0c316_comp-kbgakxea_r_comp-ljzcio3u" y2=".5" x2="1" y1=".5" x1="0">
                        <stop stop-color="#1761a0" offset="0%"></stop>
                        <stop stop-color="#1761a0" offset="100%"></stop>
                    </linearGradient>
                <linearGradient id="cedc773d-c992-4d66-a6d1-f3ef41e0c316_comp-kbgakxea_r_comp-ljzcio3u" y2=".5" x2="1" y1=".5" x1="0">
                        <stop stop-color="#1761a0" offset="0%"></stop>
                        <stop stop-color="#1761a0" offset="100%"></stop>
                    </linearGradient><linearGradient id="cedc773d-c992-4d66-a6d1-f3ef41e0c316_comp-kbgakxea_r_comp-ljzcio3u" y2=".5" x2="1" y1=".5" x1="0">
                        <stop stop-color="#1761a0" offset="0%"></stop>
                        <stop stop-color="#1761a0" offset="100%"></stop>
                    </linearGradient></defs>
                <path fill="url(&quot;#cedc773d-c992-4d66-a6d1-f3ef41e0c316_comp-kbgakxea_r_comp-ljzcio3u&quot;)" transform="translate(0 84)" d="M6.5-21.5v-44.2l14.9-2.4v15.5h17.9v12.4H21.4v18.5q0 4.7 1.65 7.5t6.65 2.8q2.4 0 4.95-.45 2.55-.45 4.65-1.25l2.1 11.6q-2.7 1.1-6 1.9-3.3.8-8.1.8-6.1 0-10.1-1.65t-6.4-4.6Q8.4-8 7.45-12.2q-.95-4.2-.95-9.3ZM66.3 0H51.4v-75.2l14.9-2.4v25.2q1.5-.5 3.85-.95 2.35-.45 4.55-.45 6.4 0 10.65 1.75t6.8 4.95q2.55 3.2 3.6 7.6 1.05 4.4 1.05 9.8V0H81.9v-27.9q0-7.2-1.85-10.2-1.85-3-6.85-3-2 0-3.75.35T66.3-40V0Zm41.5-25.9q0-7 2.15-12.25t5.65-8.75q3.5-3.5 8.05-5.3Q128.2-54 133-54q11.2 0 17.7 6.85T157.2-27q0 1.3-.1 2.85t-.2 2.75h-33.8q.5 4.6 4.3 7.3t10.2 2.7q4.1 0 8.05-.75 3.95-.75 6.45-1.85l2 12.1q-1.2.6-3.2 1.2T146.45.35q-2.45.45-5.25.75t-5.6.3q-7.1 0-12.35-2.1t-8.7-5.75q-3.45-3.65-5.1-8.65-1.65-5-1.65-10.8Zm15.3-5.7h19.7q-.1-1.9-.65-3.7-.55-1.8-1.7-3.2-1.15-1.4-2.9-2.3-1.75-.9-4.35-.9-2.5 0-4.3.85-1.8.85-3 2.25t-1.85 3.25q-.65 1.85-.95 3.75Zm67.1 5.3q0-5.7 1.85-10.75t5.35-8.8q3.5-3.75 8.5-5.95t11.4-2.2q4.2 0 7.7.75t6.8 2.15l-3.1 11.9q-2.1-.8-4.6-1.4-2.5-.6-5.6-.6-6.6 0-9.85 4.1t-3.25 10.8q0 7.1 3.05 11 3.05 3.9 10.65 3.9 2.7 0 5.8-.5 3.1-.5 5.7-1.6l2.1 12.2q-2.6 1.1-6.5 1.9-3.9.8-8.6.8-7.2 0-12.4-2.15t-8.55-5.85q-3.35-3.7-4.9-8.75-1.55-5.05-1.55-10.95Zm99.2-.1q0 6.2-1.8 11.35-1.8 5.15-5.2 8.8Q279-2.6 274.25-.6q-4.75 2-10.65 2-5.8 0-10.55-2-4.75-2-8.15-5.65-3.4-3.65-5.3-8.8t-1.9-11.35q0-6.2 1.95-11.3 1.95-5.1 5.4-8.7 3.45-3.6 8.2-5.6 4.75-2 10.35-2 5.7 0 10.45 2 4.75 2 8.15 5.6 3.4 3.6 5.3 8.7t1.9 11.3Zm-15.2 0q0-6.9-2.75-10.85-2.75-3.95-7.85-3.95t-7.9 3.95q-2.8 3.95-2.8 10.85 0 6.9 2.8 10.95 2.8 4.05 7.9 4.05 5.1 0 7.85-4.05t2.75-10.95Zm39.4-.3q0 6.9 3.1 11.1 3.1 4.2 9.2 4.2 2 0 3.7-.15 1.7-.15 2.8-.35V-39q-1.4-.9-3.65-1.5t-4.55-.6q-10.6 0-10.6 14.4Zm33.7-50.9v75.9q-2 .6-4.6 1.15-2.6.55-5.45.95-2.85.4-5.8.65-2.95.25-5.65.25-6.5 0-11.6-1.9t-8.6-5.45q-3.5-3.55-5.35-8.6Q298.4-19.7 298.4-26q0-6.4 1.6-11.55t4.6-8.75q3-3.6 7.35-5.5t9.95-1.9q3.1 0 5.55.6 2.45.6 4.95 1.7v-23.8l14.9-2.4Zm11.5 51.7q0-7 2.15-12.25t5.65-8.75q3.5-3.5 8.05-5.3Q379.2-54 384-54q11.2 0 17.7 6.85T408.2-27q0 1.3-.1 2.85t-.2 2.75h-33.8q.5 4.6 4.3 7.3t10.2 2.7q4.1 0 8.05-.75 3.95-.75 6.45-1.85l2 12.1q-1.2.6-3.2 1.2T397.45.35q-2.45.45-5.25.75t-5.6.3q-7.1 0-12.35-2.1t-8.7-5.75q-3.45-3.65-5.1-8.65-1.65-5-1.65-10.8Zm15.3-5.7h19.7q-.1-1.9-.65-3.7-.55-1.8-1.7-3.2-1.15-1.4-2.9-2.3-1.75-.9-4.35-.9-2.5 0-4.3.85-1.8.85-3 2.25t-1.85 3.25q-.65 1.85-.95 3.75Zm101.6 1.4q-2 7.6-4.25 15.1T466.7 0h-11.6q-1.8-4.2-3.9-10-2.1-5.8-4.35-12.65-2.25-6.85-4.6-14.5-2.35-7.65-4.55-15.45h15.7q.8 3.6 1.75 7.85t2 8.75q1.05 4.5 2.2 9.05 1.15 4.55 2.35 8.75 1.3-4.4 2.55-9 1.25-4.6 2.4-9.05 1.15-4.45 2.2-8.6 1.05-4.15 1.85-7.75h10.8q.8 3.6 1.8 7.75t2.1 8.6q1.1 4.45 2.3 9.05 1.2 4.6 2.5 9 1.2-4.2 2.4-8.75t2.25-9.05q1.05-4.5 2-8.75t1.75-7.85h15.5q-2.2 7.8-4.55 15.45-2.35 7.65-4.6 14.5-2.25 6.85-4.4 12.65-2.15 5.8-3.95 10H485q-2.5-7.6-4.9-15.1-2.4-7.5-4.4-15.1Zm42.7 4.3q0-7 2.15-12.25t5.65-8.75q3.5-3.5 8.05-5.3 4.55-1.8 9.35-1.8 11.2 0 17.7 6.85T567.8-27q0 1.3-.1 2.85t-.2 2.75h-33.8q.5 4.6 4.3 7.3t10.2 2.7q4.1 0 8.05-.75 3.95-.75 6.45-1.85l2 12.1q-1.2.6-3.2 1.2T557.05.35q-2.45.45-5.25.75t-5.6.3q-7.1 0-12.35-2.1t-8.7-5.75q-3.45-3.65-5.1-8.65-1.65-5-1.65-10.8Zm15.3-5.7h19.7q-.1-1.9-.65-3.7-.55-1.8-1.7-3.2-1.15-1.4-2.9-2.3-1.75-.9-4.35-.9-2.5 0-4.3.85-1.8.85-3 2.25t-1.85 3.25q-.65 1.85-.95 3.75Zm65.7 21.2q2.2 0 4.2-.1t3.2-.3v-11.3q-.9-.2-2.7-.4-1.8-.2-3.3-.2-2.1 0-3.95.25t-3.25.95q-1.4.7-2.2 1.9-.8 1.2-.8 3 0 3.5 2.35 4.85 2.35 1.35 6.45 1.35ZM598.2-54q6.6 0 11 1.5t7.05 4.3q2.65 2.8 3.75 6.8t1.1 8.9v31q-3.2.7-8.9 1.65t-13.8.95q-5.1 0-9.25-.9T582-2.75q-3-2.05-4.6-5.35-1.6-3.3-1.6-8.1 0-4.6 1.85-7.8t4.95-5.1q3.1-1.9 7.1-2.75 4-.85 8.3-.85 2.9 0 5.15.25 2.25.25 3.65.65v-1.4q0-3.8-2.3-6.1t-8-2.3q-3.8 0-7.5.55t-6.4 1.55l-1.9-12q1.3-.4 3.25-.85 1.95-.45 4.25-.8 2.3-.35 4.85-.6t5.15-.25ZM660 0h-12.4q-5.1-10-10.35-23.4-5.25-13.4-9.95-29.2h15.8q1 3.9 2.35 8.45 1.35 4.55 2.8 9.2 1.45 4.65 2.9 9.05t2.85 8q1.3-3.6 2.8-8 1.5-4.4 2.95-9.05 1.45-4.65 2.8-9.2 1.35-4.55 2.35-8.45h15.4q-4.7 15.8-9.95 29.2Q665.1-10 660 0Zm24.4-25.9q0-7 2.15-12.25t5.65-8.75q3.5-3.5 8.05-5.3 4.55-1.8 9.35-1.8 11.2 0 17.7 6.85T733.8-27q0 1.3-.1 2.85t-.2 2.75h-33.8q.5 4.6 4.3 7.3t10.2 2.7q4.1 0 8.05-.75 3.95-.75 6.45-1.85l2 12.1q-1.2.6-3.2 1.2T723.05.35q-2.45.45-5.25.75t-5.6.3q-7.1 0-12.35-2.1t-8.7-5.75q-3.45-3.65-5.1-8.65-1.65-5-1.65-10.8Zm15.3-5.7h19.7q-.1-1.9-.65-3.7-.55-1.8-1.7-3.2-1.15-1.4-2.9-2.3-1.75-.9-4.35-.9-2.5 0-4.3.85-1.8.85-3 2.25t-1.85 3.25q-.65 1.85-.95 3.75Zm79.8-20.1L777-39.4q-2-.5-4.7-1.05t-5.8-.55q-1.4 0-3.35.25-1.95.25-2.95.55V0h-14.9v-49.8q4-1.4 9.45-2.65 5.45-1.25 12.15-1.25 1.2 0 2.9.15t3.4.4q1.7.25 3.4.6t2.9.85Zm23.1 41q4.1 0 5.8-.8 1.7-.8 1.7-3.1 0-1.8-2.2-3.15-2.2-1.35-6.7-3.05-3.5-1.3-6.35-2.7-2.85-1.4-4.85-3.35-2-1.95-3.1-4.65t-1.1-6.5q0-7.4 5.5-11.7 5.5-4.3 15.1-4.3 4.8 0 9.2.85 4.4.85 7 1.85L820-39.7q-2.6-.9-5.65-1.6-3.05-.7-6.85-.7-7 0-7 3.9 0 .9.3 1.6.3.7 1.2 1.35.9.65 2.45 1.4 1.55.75 3.95 1.65 4.9 1.8 8.1 3.55 3.2 1.75 5.05 3.8 1.85 2.05 2.6 4.55t.75 5.8q0 7.8-5.85 11.8-5.85 4-16.55 4-7 0-11.65-1.2t-6.45-2l2.5-12.1q3.8 1.5 7.8 2.35 4 .85 7.9.85Z"></path>
            </svg>