<svg xmlns:xlink="http://www.w3.org/1999/xlink" preserveAspectRatio="xMidYMid meet" data-bbox="29.997 194.343 539.98 211.309" xmlns="http://www.w3.org/2000/svg" viewBox="0 0 600 600" height="1000" width="1000" class="thumb" data-type="ugc" role="presentation" aria-hidden="true" aria-label="">
    <g>
        <g transform="rotate(88.999 5.868 237.407) scale(1.21)">
            <svg viewBox="45.712 109.302 10.344 10.003" height="10.003" width="10.344">
                <defs>
                    <linearGradient id="248685ab-1ac7-4aff-b666-504d6cc5b751_comp-kbgakxea_r_comp-ljzcio3u" y2=".5" x2="1" y1=".5" x1="0">
                        <stop stop-color="#000000" offset="0%"></stop>
                        <stop stop-color="#000000" offset="100%"></stop>
                    </linearGradient>
                <linearGradient id="248685ab-1ac7-4aff-b666-504d6cc5b751_comp-kbgakxea_r_comp-ljzcio3u" y2=".5" x2="1" y1=".5" x1="0">
                        <stop stop-color="#000000" offset="0%"></stop>
                        <stop stop-color="#000000" offset="100%"></stop>
                    </linearGradient></defs>
                <path fill="url(&quot;#248685ab-1ac7-4aff-b666-504d6cc5b751_comp-kbgakxea_r_comp-ljzcio3u&quot;)" d="m51.056 114.303-.203-.001-.141.003c.114 0 .228 0 .344-.002z"></path>
            </svg>
        </g>
        <g transform="rotate(88.999 86.588 279.648) scale(1.21)">
            <svg viewBox="14.219 9.334 38.083 59.003" height="59.003" width="38.083">
                <defs>
                    <linearGradient id="7881fca7-65a8-4075-8ef1-e39f9e7d4935_comp-kbgakxea_r_comp-ljzcio3u" y2=".5" x2="1" y1=".5" x1="0">
                        <stop stop-color="#000000" offset="0%"></stop>
                        <stop stop-color="#000000" offset="100%"></stop>
                    </linearGradient>
                <linearGradient id="7881fca7-65a8-4075-8ef1-e39f9e7d4935_comp-kbgakxea_r_comp-ljzcio3u" y2=".5" x2="1" y1=".5" x1="0">
                        <stop stop-color="#000000" offset="0%"></stop>
                        <stop stop-color="#000000" offset="100%"></stop>
                    </linearGradient></defs>
                <path fill="url(&quot;#7881fca7-65a8-4075-8ef1-e39f9e7d4935_comp-kbgakxea_r_comp-ljzcio3u&quot;)" d="m19.219 14.334 28.077 49.003.006-.009-28.083-48.994z"></path>
            </svg>
        </g>
        <g transform="rotate(88.999 5.868 237.407) scale(1.21)">
            <svg viewBox="45.703 109.303 10.008 10" height="10" width="10.008">
                <defs>
                    <linearGradient id="9537e1fe-2001-427e-a55d-aabb83e07973_comp-kbgakxea_r_comp-ljzcio3u" y2=".5" x2="1" y1=".5" x1="0">
                        <stop stop-color="#000000" offset="0%"></stop>
                        <stop stop-color="#000000" offset="100%"></stop>
                    </linearGradient>
                <linearGradient id="9537e1fe-2001-427e-a55d-aabb83e07973_comp-kbgakxea_r_comp-ljzcio3u" y2=".5" x2="1" y1=".5" x1="0">
                        <stop stop-color="#000000" offset="0%"></stop>
                        <stop stop-color="#000000" offset="100%"></stop>
                    </linearGradient></defs>
                <path fill="url(&quot;#9537e1fe-2001-427e-a55d-aabb83e07973_comp-kbgakxea_r_comp-ljzcio3u&quot;)" d="M50.71 114.303h.001-.008.007z"></path>
            </svg>
        </g>
        <g transform="translate(310.91 236.821) scale(1.8933)">
            <svg viewBox="69.959 44.907 26.102 23.146" height="23.146" width="26.102">
                <defs>
                    <linearGradient id="621aa91a-8ec1-4416-84cd-8f10946bbdb1_comp-kbgakxea_r_comp-ljzcio3u" y2=".5" x2="1" y1=".5" x1="0">
                        <stop stop-color="#1761a0" offset="0%"></stop>
                        <stop stop-color="#1761a0" offset="100%"></stop>
                    </linearGradient>
                <linearGradient id="621aa91a-8ec1-4416-84cd-8f10946bbdb1_comp-kbgakxea_r_comp-ljzcio3u" y2=".5" x2="1" y1=".5" x1="0">
                        <stop stop-color="#1761a0" offset="0%"></stop>
                        <stop stop-color="#1761a0" offset="100%"></stop>
                    </linearGradient></defs>
                <path fill="url(&quot;#621aa91a-8ec1-4416-84cd-8f10946bbdb1_comp-kbgakxea_r_comp-ljzcio3u&quot;)" d="M90.716 58.23a.771.771 0 0 1 .345-.102l-.651-8.221-15.451 8.898 7.379 4.248 8.378-4.823z"></path>
            </svg>
        </g>
        <g transform="translate(238.56 274.639) scale(1.8933)">
            <svg viewBox="32.434 65.053 36.347 29.804" height="29.804" width="36.347">
                <defs>
                    <linearGradient id="bf084159-0139-488d-b89a-b9dfa27db992_comp-kbgakxea_r_comp-ljzcio3u" y2=".5" x2="1" y1=".5" x1="0">
                        <stop stop-color="#1761a0" offset="0%"></stop>
                        <stop stop-color="#1761a0" offset="100%"></stop>
                    </linearGradient>
                <linearGradient id="bf084159-0139-488d-b89a-b9dfa27db992_comp-kbgakxea_r_comp-ljzcio3u" y2=".5" x2="1" y1=".5" x1="0">
                        <stop stop-color="#1761a0" offset="0%"></stop>
                        <stop stop-color="#1761a0" offset="100%"></stop>
                    </linearGradient></defs>
                <path fill="url(&quot;#bf084159-0139-488d-b89a-b9dfa27db992_comp-kbgakxea_r_comp-ljzcio3u&quot;)" d="m38.218 79.959-.784 9.898 26.347-15.169-8.355-4.635-17.208 9.906z"></path>
            </svg>
        </g>
        <g transform="translate(239.478 236.321) scale(1.8933)">
            <svg viewBox="32.498 44.908 63.627 49.95" height="49.95" width="63.627">
                <defs>
                    <linearGradient id="108232b5-a5ab-4606-9180-808e890ea3c1_comp-kbgakxea_r_comp-ljzcio3u" y2=".5" x2="1" y1=".5" x1="0">
                        <stop stop-color="#1761a0" offset="0%"></stop>
                        <stop stop-color="#1761a0" offset="100%"></stop>
                    </linearGradient>
                <linearGradient id="108232b5-a5ab-4606-9180-808e890ea3c1_comp-kbgakxea_r_comp-ljzcio3u" y2=".5" x2="1" y1=".5" x1="0">
                        <stop stop-color="#1761a0" offset="0%"></stop>
                        <stop stop-color="#1761a0" offset="100%"></stop>
                    </linearGradient></defs>
                <path fill="url(&quot;#108232b5-a5ab-4606-9180-808e890ea3c1_comp-kbgakxea_r_comp-ljzcio3u&quot;)" d="m38.148 49.908-.65 8.221c.119.01.239.039.347.102l8.789 5.061h.001l44.49 26.566-.785-9.898-52.192-30.052z"></path>
            </svg>
        </g>
        <g transform="translate(341.169 236.821) scale(1.8933)">
            <svg viewBox="86.19 44.908 26.103 23.147" height="23.147" width="26.103">
                <defs>
                    <linearGradient id="17a4781e-17e2-422b-a2ab-1677a10008cf_comp-kbgakxea_r_comp-ljzcio3u" y2=".5" x2="1" y1=".5" x1="0">
                        <stop stop-color="#1761a0" offset="0%"></stop>
                        <stop stop-color="#1761a0" offset="100%"></stop>
                    </linearGradient>
                <linearGradient id="17a4781e-17e2-422b-a2ab-1677a10008cf_comp-kbgakxea_r_comp-ljzcio3u" y2=".5" x2="1" y1=".5" x1="0">
                        <stop stop-color="#1761a0" offset="0%"></stop>
                        <stop stop-color="#1761a0" offset="100%"></stop>
                    </linearGradient></defs>
                <path fill="url(&quot;#17a4781e-17e2-422b-a2ab-1677a10008cf_comp-kbgakxea_r_comp-ljzcio3u&quot;)" d="m99.914 63.055 7.379-4.248-15.453-8.899-.65 8.221a.799.799 0 0 1 .348.102l8.376 4.824z"></path>
            </svg>
        </g>
        <g transform="translate(171.318 215.044) scale(1.8933)">
            <svg viewBox="-3.427 33.143 135.424 50.373" height="50.373" width="135.424">
                <defs>
                    <linearGradient id="d1079ae1-8bab-45f9-af5b-5c1515b82559_comp-kbgakxea_r_comp-ljzcio3u" y2=".5" x2="1" y1=".5" x1="0">
                        <stop stop-color="#74d14c" offset="0%"></stop>
                        <stop stop-color="#74d14c" offset="100%"></stop>
                    </linearGradient>
                <linearGradient id="d1079ae1-8bab-45f9-af5b-5c1515b82559_comp-kbgakxea_r_comp-ljzcio3u" y2=".5" x2="1" y1=".5" x1="0">
                        <stop stop-color="#74d14c" offset="0%"></stop>
                        <stop stop-color="#74d14c" offset="100%"></stop>
                    </linearGradient></defs>
                <path fill="url(&quot;#d1079ae1-8bab-45f9-af5b-5c1515b82559_comp-kbgakxea_r_comp-ljzcio3u&quot;)" d="m64.904 53.248 8.394 4.613 17.184-9.895a.834.834 0 0 1 .579-.309.827.827 0 0 1 .712.313l17.581 10.121c.014.008.025.02.037.027.026.018.05.033.074.053a.965.965 0 0 1 .112.112c.02.023.036.049.053.074.009.014.02.023.038.061.014.027.025.055.036.082a.634.634 0 0 1 .044.148.532.532 0 0 1 .014.078c.003.027.002.053.002.08 0 .025.001.051-.002.078a.532.532 0 0 1-.014.078.634.634 0 0 1-.018.078c-.007.023-.017.047-.026.07-.011.027-.022.055-.047.105-.005.01-.014.016-.02.023a.717.717 0 0 1-.096.125c-.012.014-.021.025-.035.037a.817.817 0 0 1-.158.119L91.537 69.777a.823.823 0 0 1-.821 0L37.458 38.143 1.573 58.801 37.43 78.514l16.318-9.395-7.517-4.17-8.388 4.828a.815.815 0 0 1-.821 0c-.815-.451-16.51-9.107-17.285-9.568-.514-.305-1.114-.572-1.021-1.271.111-.842 1.209-1.262 1.861-1.637 2.014-1.16 4.028-2.318 6.042-3.479l10.17-5.855a.834.834 0 0 1 .579-.309.83.83 0 0 1 .713.313l53.053 30.545 35.863-19.709L91.125 38.15 64.904 53.248z"></path>
            </svg>
        </g>
        <g transform="translate(341.149 253.823) scale(1.8933)">
            <svg viewBox="86.126 53.807 45.874 41.05" height="41.05" width="45.874">
                <defs>
                    <linearGradient id="c8dea000-8a24-4ef1-a31c-c4470405487c_comp-kbgakxea_r_comp-ljzcio3u" y2=".5" x2="1" y1=".5" x1="0">
                        <stop stop-color="#1761a0" offset="0%"></stop>
                        <stop stop-color="#1761a0" offset="100%"></stop>
                    </linearGradient>
                <linearGradient id="c8dea000-8a24-4ef1-a31c-c4470405487c_comp-kbgakxea_r_comp-ljzcio3u" y2=".5" x2="1" y1=".5" x1="0">
                        <stop stop-color="#1761a0" offset="0%"></stop>
                        <stop stop-color="#1761a0" offset="100%"></stop>
                    </linearGradient></defs>
                <path fill="url(&quot;#c8dea000-8a24-4ef1-a31c-c4470405487c_comp-kbgakxea_r_comp-ljzcio3u&quot;)" d="M127 58.807 91.91 79.949l-.784 9.908L127 69.203V58.807z"></path>
            </svg>
        </g>
        <g transform="translate(207.84 236.821) scale(1.8933)">
            <svg viewBox="16.266 44.908 26.104 23.147" height="23.147" width="26.104">
                <defs>
                    <linearGradient id="d85a5b1b-db55-4497-ab47-fa8d18032b0e_comp-kbgakxea_r_comp-ljzcio3u" y2=".5" x2="1" y1=".5" x1="0">
                        <stop stop-color="#1761a0" offset="0%"></stop>
                        <stop stop-color="#1761a0" offset="100%"></stop>
                    </linearGradient>
                <linearGradient id="d85a5b1b-db55-4497-ab47-fa8d18032b0e_comp-kbgakxea_r_comp-ljzcio3u" y2=".5" x2="1" y1=".5" x1="0">
                        <stop stop-color="#1761a0" offset="0%"></stop>
                        <stop stop-color="#1761a0" offset="100%"></stop>
                    </linearGradient></defs>
                <path fill="url(&quot;#d85a5b1b-db55-4497-ab47-fa8d18032b0e_comp-kbgakxea_r_comp-ljzcio3u&quot;)" d="m21.266 58.807 7.381 4.248 8.377-4.824a.806.806 0 0 1 .346-.102l-.651-8.221-15.453 8.899z"></path>
            </svg>
        </g>
        <g transform="matrix(1.8503 0 0 1.8727 171.456 253.774)">
            <svg viewBox="-4 53.807 46.154 41.05" height="41.05" width="46.154">
                <defs>
                    <linearGradient id="2f985462-8302-4d09-bc73-b776c09f000a_comp-kbgakxea_r_comp-ljzcio3u" y2=".5" x2="1" y1=".5" x1="0">
                        <stop stop-color="#1761a0" offset="0%"></stop>
                        <stop stop-color="#1761a0" offset="100%"></stop>
                    </linearGradient>
                <linearGradient id="2f985462-8302-4d09-bc73-b776c09f000a_comp-kbgakxea_r_comp-ljzcio3u" y2=".5" x2="1" y1=".5" x1="0">
                        <stop stop-color="#1761a0" offset="0%"></stop>
                        <stop stop-color="#1761a0" offset="100%"></stop>
                    </linearGradient></defs>
                <path fill="url(&quot;#2f985462-8302-4d09-bc73-b776c09f000a_comp-kbgakxea_r_comp-ljzcio3u&quot;)" d="M1 58.807v10.396l36.154 20.654-.925-9.908L1 58.807z"></path>
            </svg>
        </g>
        <g transform="matrix(.6598 0 0 .6563 25.708 349.604)">
            <svg height="172" width="829" overflow="visible">
                <defs>
                    <linearGradient id="cedc773d-c992-4d66-a6d1-f3ef41e0c316_comp-kbgakxea_r_comp-ljzcio3u" y2=".5" x2="1" y1=".5" x1="0">
                        <stop stop-color="#1761a0" offset="0%"></stop>
                        <stop stop-color="#1761a0" offset="100%"></stop>
                    </linearGradient>
                <linearGradient id="cedc773d-c992-4d66-a6d1-f3ef41e0c316_comp-kbgakxea_r_comp-ljzcio3u" y2=".5" x2="1" y1=".5" x1="0">
                        <stop stop-color="#1761a0" offset="0%"></stop>
                        <stop stop-color="#1761a0" offset="100%"></stop>
                    </linearGradient></defs>
                <path fill="url(&quot;#cedc773d-c992-4d66-a6d1-f3ef41e0c316_comp-kbgakxea_r_comp-ljzcio3u&quot;)" transform="translate(0 84)" d="M6.5-21.5v-44.2l14.9-2.4v15.5h17.9v12.4H21.4v18.5q0 4.7 1.65 7.5t6.65 2.8q2.4 0 4.95-.45 2.55-.45 4.65-1.25l2.1 11.6q-2.7 1.1-6 1.9-3.3.8-8.1.8-6.1 0-10.1-1.65t-6.4-4.6Q8.4-8 7.45-12.2q-.95-4.2-.95-9.3ZM66.3 0H51.4v-75.2l14.9-2.4v25.2q1.5-.5 3.85-.95 2.35-.45 4.55-.45 6.4 0 10.65 1.75t6.8 4.95q2.55 3.2 3.6 7.6 1.05 4.4 1.05 9.8V0H81.9v-27.9q0-7.2-1.85-10.2-1.85-3-6.85-3-2 0-3.75.35T66.3-40V0Zm41.5-25.9q0-7 2.15-12.25t5.65-8.75q3.5-3.5 8.05-5.3Q128.2-54 133-54q11.2 0 17.7 6.85T157.2-27q0 1.3-.1 2.85t-.2 2.75h-33.8q.5 4.6 4.3 7.3t10.2 2.7q4.1 0 8.05-.75 3.95-.75 6.45-1.85l2 12.1q-1.2.6-3.2 1.2T146.45.35q-2.45.45-5.25.75t-5.6.3q-7.1 0-12.35-2.1t-8.7-5.75q-3.45-3.65-5.1-8.65-1.65-5-1.65-10.8Zm15.3-5.7h19.7q-.1-1.9-.65-3.7-.55-1.8-1.7-3.2-1.15-1.4-2.9-2.3-1.75-.9-4.35-.9-2.5 0-4.3.85-1.8.85-3 2.25t-1.85 3.25q-.65 1.85-.95 3.75Zm67.1 5.3q0-5.7 1.85-10.75t5.35-8.8q3.5-3.75 8.5-5.95t11.4-2.2q4.2 0 7.7.75t6.8 2.15l-3.1 11.9q-2.1-.8-4.6-1.4-2.5-.6-5.6-.6-6.6 0-9.85 4.1t-3.25 10.8q0 7.1 3.05 11 3.05 3.9 10.65 3.9 2.7 0 5.8-.5 3.1-.5 5.7-1.6l2.1 12.2q-2.6 1.1-6.5 1.9-3.9.8-8.6.8-7.2 0-12.4-2.15t-8.55-5.85q-3.35-3.7-4.9-8.75-1.55-5.05-1.55-10.95Zm99.2-.1q0 6.2-1.8 11.35-1.8 5.15-5.2 8.8Q279-2.6 274.25-.6q-4.75 2-10.65 2-5.8 0-10.55-2-4.75-2-8.15-5.65-3.4-3.65-5.3-8.8t-1.9-11.35q0-6.2 1.95-11.3 1.95-5.1 5.4-8.7 3.45-3.6 8.2-5.6 4.75-2 10.35-2 5.7 0 10.45 2 4.75 2 8.15 5.6 3.4 3.6 5.3 8.7t1.9 11.3Zm-15.2 0q0-6.9-2.75-10.85-2.75-3.95-7.85-3.95t-7.9 3.95q-2.8 3.95-2.8 10.85 0 6.9 2.8 10.95 2.8 4.05 7.9 4.05 5.1 0 7.85-4.05t2.75-10.95Zm39.4-.3q0 6.9 3.1 11.1 3.1 4.2 9.2 4.2 2 0 3.7-.15 1.7-.15 2.8-.35V-39q-1.4-.9-3.65-1.5t-4.55-.6q-10.6 0-10.6 14.4Zm33.7-50.9v75.9q-2 .6-4.6 1.15-2.6.55-5.45.95-2.85.4-5.8.65-2.95.25-5.65.25-6.5 0-11.6-1.9t-8.6-5.45q-3.5-3.55-5.35-8.6Q298.4-19.7 298.4-26q0-6.4 1.6-11.55t4.6-8.75q3-3.6 7.35-5.5t9.95-1.9q3.1 0 5.55.6 2.45.6 4.95 1.7v-23.8l14.9-2.4Zm11.5 51.7q0-7 2.15-12.25t5.65-8.75q3.5-3.5 8.05-5.3Q379.2-54 384-54q11.2 0 17.7 6.85T408.2-27q0 1.3-.1 2.85t-.2 2.75h-33.8q.5 4.6 4.3 7.3t10.2 2.7q4.1 0 8.05-.75 3.95-.75 6.45-1.85l2 12.1q-1.2.6-3.2 1.2T397.45.35q-2.45.45-5.25.75t-5.6.3q-7.1 0-12.35-2.1t-8.7-5.75q-3.45-3.65-5.1-8.65-1.65-5-1.65-10.8Zm15.3-5.7h19.7q-.1-1.9-.65-3.7-.55-1.8-1.7-3.2-1.15-1.4-2.9-2.3-1.75-.9-4.35-.9-2.5 0-4.3.85-1.8.85-3 2.25t-1.85 3.25q-.65 1.85-.95 3.75Zm101.6 1.4q-2 7.6-4.25 15.1T466.7 0h-11.6q-1.8-4.2-3.9-10-2.1-5.8-4.35-12.65-2.25-6.85-4.6-14.5-2.35-7.65-4.55-15.45h15.7q.8 3.6 1.75 7.85t2 8.75q1.05 4.5 2.2 9.05 1.15 4.55 2.35 8.75 1.3-4.4 2.55-9 1.25-4.6 2.4-9.05 1.15-4.45 2.2-8.6 1.05-4.15 1.85-7.75h10.8q.8 3.6 1.8 7.75t2.1 8.6q1.1 4.45 2.3 9.05 1.2 4.6 2.5 9 1.2-4.2 2.4-8.75t2.25-9.05q1.05-4.5 2-8.75t1.75-7.85h15.5q-2.2 7.8-4.55 15.45-2.35 7.65-4.6 14.5-2.25 6.85-4.4 12.65-2.15 5.8-3.95 10H485q-2.5-7.6-4.9-15.1-2.4-7.5-4.4-15.1Zm42.7 4.3q0-7 2.15-12.25t5.65-8.75q3.5-3.5 8.05-5.3 4.55-1.8 9.35-1.8 11.2 0 17.7 6.85T567.8-27q0 1.3-.1 2.85t-.2 2.75h-33.8q.5 4.6 4.3 7.3t10.2 2.7q4.1 0 8.05-.75 3.95-.75 6.45-1.85l2 12.1q-1.2.6-3.2 1.2T557.05.35q-2.45.45-5.25.75t-5.6.3q-7.1 0-12.35-2.1t-8.7-5.75q-3.45-3.65-5.1-8.65-1.65-5-1.65-10.8Zm15.3-5.7h19.7q-.1-1.9-.65-3.7-.55-1.8-1.7-3.2-1.15-1.4-2.9-2.3-1.75-.9-4.35-.9-2.5 0-4.3.85-1.8.85-3 2.25t-1.85 3.25q-.65 1.85-.95 3.75Zm65.7 21.2q2.2 0 4.2-.1t3.2-.3v-11.3q-.9-.2-2.7-.4-1.8-.2-3.3-.2-2.1 0-3.95.25t-3.25.95q-1.4.7-2.2 1.9-.8 1.2-.8 3 0 3.5 2.35 4.85 2.35 1.35 6.45 1.35ZM598.2-54q6.6 0 11 1.5t7.05 4.3q2.65 2.8 3.75 6.8t1.1 8.9v31q-3.2.7-8.9 1.65t-13.8.95q-5.1 0-9.25-.9T582-2.75q-3-2.05-4.6-5.35-1.6-3.3-1.6-8.1 0-4.6 1.85-7.8t4.95-5.1q3.1-1.9 7.1-2.75 4-.85 8.3-.85 2.9 0 5.15.25 2.25.25 3.65.65v-1.4q0-3.8-2.3-6.1t-8-2.3q-3.8 0-7.5.55t-6.4 1.55l-1.9-12q1.3-.4 3.25-.85 1.95-.45 4.25-.8 2.3-.35 4.85-.6t5.15-.25ZM660 0h-12.4q-5.1-10-10.35-23.4-5.25-13.4-9.95-29.2h15.8q1 3.9 2.35 8.45 1.35 4.55 2.8 9.2 1.45 4.65 2.9 9.05t2.85 8q1.3-3.6 2.8-8 1.5-4.4 2.95-9.05 1.45-4.65 2.8-9.2 1.35-4.55 2.35-8.45h15.4q-4.7 15.8-9.95 29.2Q665.1-10 660 0Zm24.4-25.9q0-7 2.15-12.25t5.65-8.75q3.5-3.5 8.05-5.3 4.55-1.8 9.35-1.8 11.2 0 17.7 6.85T733.8-27q0 1.3-.1 2.85t-.2 2.75h-33.8q.5 4.6 4.3 7.3t10.2 2.7q4.1 0 8.05-.75 3.95-.75 6.45-1.85l2 12.1q-1.2.6-3.2 1.2T723.05.35q-2.45.45-5.25.75t-5.6.3q-7.1 0-12.35-2.1t-8.7-5.75q-3.45-3.65-5.1-8.65-1.65-5-1.65-10.8Zm15.3-5.7h19.7q-.1-1.9-.65-3.7-.55-1.8-1.7-3.2-1.15-1.4-2.9-2.3-1.75-.9-4.35-.9-2.5 0-4.3.85-1.8.85-3 2.25t-1.85 3.25q-.65 1.85-.95 3.75Zm79.8-20.1L777-39.4q-2-.5-4.7-1.05t-5.8-.55q-1.4 0-3.35.25-1.95.25-2.95.55V0h-14.9v-49.8q4-1.4 9.45-2.65 5.45-1.25 12.15-1.25 1.2 0 2.9.15t3.4.4q1.7.25 3.4.6t2.9.85Zm23.1 41q4.1 0 5.8-.8 1.7-.8 1.7-3.1 0-1.8-2.2-3.15-2.2-1.35-6.7-3.05-3.5-1.3-6.35-2.7-2.85-1.4-4.85-3.35-2-1.95-3.1-4.65t-1.1-6.5q0-7.4 5.5-11.7 5.5-4.3 15.1-4.3 4.8 0 9.2.85 4.4.85 7 1.85L820-39.7q-2.6-.9-5.65-1.6-3.05-.7-6.85-.7-7 0-7 3.9 0 .9.3 1.6.3.7 1.2 1.35.9.65 2.45 1.4 1.55.75 3.95 1.65 4.9 1.8 8.1 3.55 3.2 1.75 5.05 3.8 1.85 2.05 2.6 4.55t.75 5.8q0 7.8-5.85 11.8-5.85 4-16.55 4-7 0-11.65-1.2t-6.45-2l2.5-12.1q3.8 1.5 7.8 2.35 4 .85 7.9.85Z"></path>
            </svg>
        </g>
    </g>
</svg>