<svg width="1221" height="224" viewBox="0 0 1221 224" fill="none" xmlns="http://www.w3.org/2000/svg">
<path d="M142.05 67.1587L142.046 66.8447L142.038 66.6268C142.041 66.8031 142.044 66.9793 142.05 67.1587Z" fill="url(#paint0_linear_80_6019)"/>
<g clip-path="url(#clip0_80_6019)">
<path d="M297.391 16.5186L222.377 61.2577L222.391 61.2667L297.391 16.5186Z" fill="url(#paint1_linear_80_6019)"/>
</g>
<path d="M286.491 103.051C286.746 102.904 287.032 102.819 287.326 102.804L285.751 82.9104L248.361 104.442L266.217 114.722L286.491 103.051Z" fill="url(#paint2_linear_80_6019)"/>
<path d="M157.786 155.218L155.889 179.17L219.645 142.463L199.427 131.247L157.786 155.218Z" fill="url(#paint3_linear_80_6019)"/>
<path d="M158.635 82.2715L157.062 102.165C157.35 102.189 157.641 102.26 157.902 102.412L179.17 114.659L286.833 178.945L284.933 154.993L158.635 82.2715Z" fill="url(#paint4_linear_80_6019)"/>
<path d="M308.147 114.724L326.003 104.445L288.609 82.9104L287.036 102.804C287.332 102.821 287.62 102.905 287.878 103.051L308.147 114.724Z" fill="url(#paint5_linear_80_6019)"/>
<path d="M223.198 91.629L243.511 102.792L285.094 78.8472C285.265 78.6343 285.477 78.4583 285.718 78.3298C285.958 78.2012 286.223 78.1229 286.495 78.0995C286.822 78.0748 287.15 78.131 287.451 78.263C287.751 78.3951 288.015 78.5991 288.218 78.8569L330.761 103.348C330.795 103.368 330.822 103.397 330.851 103.414C330.914 103.457 330.972 103.494 331.03 103.542C331.128 103.625 331.218 103.715 331.301 103.813C331.349 103.869 331.388 103.932 331.429 103.992C331.451 104.026 331.478 104.048 331.521 104.14C331.555 104.205 331.582 104.273 331.608 104.338C331.658 104.453 331.694 104.573 331.715 104.696C331.731 104.758 331.742 104.821 331.749 104.885C331.756 104.95 331.754 105.013 331.754 105.079C331.754 105.139 331.756 105.202 331.749 105.267C331.742 105.331 331.731 105.394 331.715 105.456C331.704 105.52 331.69 105.583 331.671 105.645C331.654 105.701 331.63 105.759 331.608 105.814C331.582 105.88 331.555 105.947 331.495 106.068C331.483 106.093 331.461 106.107 331.446 106.124C331.38 106.233 331.302 106.334 331.214 106.426C331.185 106.46 331.163 106.487 331.129 106.516C331.014 106.627 330.886 106.724 330.747 106.804L287.647 131.627C287.345 131.801 287.002 131.892 286.653 131.892C286.305 131.892 285.962 131.801 285.66 131.627L156.783 55.0769L69.9458 105.067L156.715 152.769L196.202 130.035L178.012 119.944L157.714 131.627C157.413 131.803 157.07 131.895 156.721 131.895C156.372 131.895 156.029 131.803 155.728 131.627C153.755 130.536 115.776 109.589 113.9 108.474C112.656 107.736 111.204 107.09 111.43 105.398C111.698 103.36 114.355 102.344 115.933 101.437C120.807 98.6297 125.68 95.8275 130.554 93.018L155.164 78.8497C155.335 78.6368 155.547 78.4607 155.788 78.3322C156.029 78.2037 156.293 78.1253 156.565 78.1019C156.893 78.0775 157.221 78.1337 157.522 78.2657C157.823 78.3978 158.087 78.6016 158.29 78.8594L286.671 152.774L373.455 105.081L286.65 55.0938L223.198 91.629Z" fill="url(#paint6_linear_80_6019)"/>
<path d="M373.821 104.641L288.908 155.802L287.01 179.778L373.821 129.798V104.641Z" fill="url(#paint7_linear_80_6019)"/>
<path d="M116.625 104.445L134.486 114.724L154.758 103.051C155.014 102.906 155.301 102.822 155.595 102.804L154.02 82.9104L116.625 104.445Z" fill="url(#paint8_linear_80_6019)"/>
<path d="M69.8474 104.447V129.33L155.348 178.766L153.161 155.051L69.8474 104.447Z" fill="url(#paint9_linear_80_6019)"/>
<path d="M413.382 123.467V86.3905L425.947 84.3773V97.3792H441.043V107.781H425.947V123.299C425.947 125.927 426.411 128.025 427.339 129.59C428.267 131.156 430.136 131.939 432.947 131.939C434.296 131.939 435.688 131.813 437.121 131.562C438.555 131.31 439.862 130.96 441.043 130.513L442.814 140.243C441.296 140.859 439.609 141.39 437.754 141.837C435.898 142.285 433.622 142.508 430.923 142.508C427.494 142.508 424.654 142.047 422.406 141.124C420.157 140.202 418.358 138.915 417.008 137.266C415.659 135.616 414.717 133.617 414.183 131.268C413.649 128.919 413.382 126.319 413.382 123.467ZM463.812 141.502H451.247V78.4216L463.812 76.4084V97.547C464.655 97.2674 465.737 97.0017 467.059 96.7501C468.38 96.4984 469.659 96.3726 470.896 96.3726C474.494 96.3726 477.487 96.8619 479.877 97.8406C482.266 98.8192 484.178 100.203 485.611 101.993C487.045 103.782 488.057 105.907 488.647 108.368C489.237 110.828 489.533 113.569 489.533 116.588V141.502H476.967V118.098C476.967 114.072 476.447 111.22 475.407 109.542C474.367 107.865 472.442 107.026 469.631 107.026C468.506 107.026 467.452 107.124 466.468 107.319C465.484 107.515 464.599 107.725 463.812 107.948V141.502ZM498.809 119.776C498.809 115.861 499.413 112.436 500.622 109.5C501.831 106.564 503.419 104.118 505.387 102.161C507.354 100.203 509.617 98.7213 512.175 97.7147C514.733 96.7082 517.362 96.2049 520.06 96.2049C526.357 96.2049 531.332 98.1202 534.987 101.951C538.641 105.782 540.468 111.416 540.468 118.853C540.468 119.58 540.44 120.377 540.384 121.244C540.328 122.111 540.271 122.88 540.215 123.551H511.712C511.993 126.123 513.201 128.164 515.338 129.674C517.474 131.184 520.341 131.939 523.939 131.939C526.244 131.939 528.507 131.729 530.728 131.31C532.949 130.891 534.762 130.373 536.167 129.758L537.854 139.908C537.179 140.243 536.28 140.579 535.155 140.915C534.031 141.25 532.78 141.544 531.403 141.795C530.025 142.047 528.549 142.257 526.975 142.424C525.401 142.592 523.827 142.676 522.253 142.676C518.261 142.676 514.79 142.089 511.838 140.915C508.886 139.74 506.441 138.132 504.501 136.091C502.562 134.05 501.128 131.631 500.2 128.835C499.273 126.039 498.809 123.019 498.809 119.776ZM511.712 114.995H528.325C528.268 113.932 528.086 112.898 527.776 111.891C527.467 110.884 526.989 109.99 526.343 109.207C525.696 108.424 524.881 107.781 523.897 107.277C522.913 106.774 521.691 106.522 520.229 106.522C518.823 106.522 517.615 106.76 516.603 107.235C515.591 107.711 514.747 108.34 514.073 109.123C513.398 109.906 512.878 110.814 512.513 111.849C512.147 112.884 511.88 113.932 511.712 114.995ZM568.297 119.44C568.297 116.253 568.817 113.247 569.857 110.423C570.897 107.599 572.401 105.138 574.369 103.041C576.337 100.944 578.726 99.2806 581.537 98.0503C584.348 96.82 587.553 96.2049 591.151 96.2049C593.512 96.2049 595.677 96.4146 597.644 96.834C599.612 97.2534 601.523 97.8546 603.379 98.6375L600.764 108.62C599.584 108.172 598.291 107.781 596.885 107.445C595.48 107.11 593.906 106.942 592.163 106.942C588.452 106.942 585.683 108.088 583.856 110.381C582.029 112.674 581.115 115.694 581.115 119.44C581.115 123.411 581.973 126.487 583.688 128.668C585.402 130.849 588.396 131.939 592.669 131.939C594.187 131.939 595.817 131.799 597.56 131.52C599.303 131.24 600.905 130.793 602.367 130.178L604.138 140.411C602.676 141.026 600.849 141.558 598.656 142.005C596.464 142.452 594.046 142.676 591.404 142.676C587.356 142.676 583.87 142.075 580.947 140.873C578.023 139.67 575.62 138.035 573.737 135.965C571.853 133.896 570.476 131.45 569.604 128.626C568.733 125.802 568.297 122.74 568.297 119.44ZM651.953 119.357C651.953 122.824 651.447 125.997 650.435 128.877C649.423 131.757 647.961 134.218 646.05 136.259C644.138 138.3 641.847 139.88 639.177 140.998C636.507 142.117 633.513 142.676 630.196 142.676C626.935 142.676 623.969 142.117 621.299 140.998C618.628 139.88 616.337 138.3 614.426 136.259C612.514 134.218 611.025 131.757 609.956 128.877C608.888 125.997 608.354 122.824 608.354 119.357C608.354 115.889 608.902 112.73 609.999 109.878C611.095 107.026 612.613 104.593 614.552 102.58C616.492 100.567 618.797 99.001 621.468 97.8825C624.138 96.7641 627.047 96.2049 630.196 96.2049C633.4 96.2049 636.338 96.7641 639.008 97.8825C641.679 99.001 643.97 100.567 645.881 102.58C647.793 104.593 649.283 107.026 650.351 109.878C651.419 112.73 651.953 115.889 651.953 119.357ZM639.135 119.357C639.135 115.498 638.362 112.464 636.816 110.255C635.27 108.046 633.063 106.942 630.196 106.942C627.329 106.942 625.108 108.046 623.534 110.255C621.96 112.464 621.172 115.498 621.172 119.357C621.172 123.215 621.96 126.277 623.534 128.542C625.108 130.807 627.329 131.939 630.196 131.939C633.063 131.939 635.27 130.807 636.816 128.542C638.362 126.277 639.135 123.215 639.135 119.357ZM672.361 119.105C672.361 122.964 673.232 126.067 674.975 128.416C676.718 130.765 679.304 131.939 682.734 131.939C683.858 131.939 684.898 131.897 685.854 131.813C686.81 131.729 687.597 131.631 688.215 131.52V108.787C687.428 108.284 686.402 107.865 685.137 107.529C683.872 107.194 682.593 107.026 681.3 107.026C675.341 107.026 672.361 111.052 672.361 119.105ZM700.78 76.4084V140.076C699.656 140.411 698.363 140.733 696.901 141.04C695.439 141.348 693.907 141.614 692.305 141.837C690.703 142.061 689.072 142.243 687.414 142.382C685.755 142.522 684.167 142.592 682.649 142.592C678.995 142.592 675.734 142.061 672.867 140.998C670 139.936 667.582 138.412 665.615 136.427C663.647 134.442 662.143 132.037 661.103 129.213C660.063 126.389 659.543 123.215 659.543 119.692C659.543 116.113 659.993 112.884 660.892 110.004C661.792 107.124 663.085 104.677 664.771 102.664C666.458 100.651 668.524 99.1128 670.97 98.0503C673.415 96.9878 676.212 96.4565 679.36 96.4565C681.103 96.4565 682.663 96.6243 684.041 96.9598C685.418 97.2953 686.81 97.7707 688.215 98.3858V78.4216L700.78 76.4084ZM710.478 119.776C710.478 115.861 711.083 112.436 712.291 109.5C713.5 106.564 715.088 104.118 717.056 102.161C719.024 100.203 721.287 98.7213 723.845 97.7147C726.403 96.7082 729.031 96.2049 731.73 96.2049C738.026 96.2049 743.002 98.1202 746.656 101.951C750.31 105.782 752.138 111.416 752.138 118.853C752.138 119.58 752.109 120.377 752.053 121.244C751.997 122.111 751.941 122.88 751.885 123.551H723.381C723.662 126.123 724.871 128.164 727.007 129.674C729.143 131.184 732.011 131.939 735.609 131.939C737.914 131.939 740.177 131.729 742.397 131.31C744.618 130.891 746.431 130.373 747.837 129.758L749.523 139.908C748.849 140.243 747.949 140.579 746.825 140.915C745.7 141.25 744.449 141.544 743.072 141.795C741.695 142.047 740.219 142.257 738.645 142.424C737.071 142.592 735.496 142.676 733.922 142.676C729.931 142.676 726.459 142.089 723.507 140.915C720.556 139.74 718.11 138.132 716.171 136.091C714.231 134.05 712.797 131.631 711.87 128.835C710.942 126.039 710.478 123.019 710.478 119.776ZM723.381 114.995H739.994C739.938 113.932 739.755 112.898 739.446 111.891C739.137 110.884 738.659 109.99 738.012 109.207C737.366 108.424 736.55 107.781 735.567 107.277C734.583 106.774 733.36 106.522 731.898 106.522C730.493 106.522 729.284 106.76 728.272 107.235C727.26 107.711 726.417 108.34 725.742 109.123C725.068 109.906 724.547 110.814 724.182 111.849C723.817 112.884 723.55 113.932 723.381 114.995ZM809.061 116.169C807.936 120.419 806.742 124.641 805.477 128.835C804.212 133.03 802.876 137.252 801.471 141.502H791.689C790.677 139.153 789.58 136.357 788.4 133.113C787.219 129.87 785.996 126.333 784.731 122.502C783.466 118.672 782.173 114.617 780.852 110.339C779.531 106.061 778.252 101.741 777.015 97.3792H790.255C790.705 99.3924 791.197 101.587 791.731 103.964C792.265 106.341 792.827 108.787 793.417 111.304C794.008 113.82 794.626 116.351 795.273 118.895C795.919 121.44 796.58 123.886 797.254 126.235C797.985 123.774 798.702 121.258 799.405 118.686C800.108 116.113 800.782 113.583 801.429 111.094C802.075 108.606 802.694 106.201 803.284 103.88C803.874 101.559 804.394 99.3924 804.844 97.3792H813.952C814.402 99.3924 814.908 101.559 815.47 103.88C816.032 106.201 816.622 108.606 817.241 111.094C817.859 113.583 818.506 116.113 819.18 118.686C819.855 121.258 820.558 123.774 821.289 126.235C821.963 123.886 822.638 121.44 823.312 118.895C823.987 116.351 824.62 113.82 825.21 111.304C825.8 108.787 826.362 106.341 826.897 103.964C827.431 101.587 827.923 99.3924 828.372 97.3792H841.443C840.207 101.741 838.928 106.061 837.606 110.339C836.285 114.617 834.992 118.672 833.727 122.502C832.462 126.333 831.225 129.87 830.017 133.113C828.808 136.357 827.698 139.153 826.686 141.502H816.903C815.498 137.252 814.12 133.03 812.771 128.835C811.422 124.641 810.185 120.419 809.061 116.169ZM845.07 119.776C845.07 115.861 845.674 112.436 846.883 109.5C848.092 106.564 849.68 104.118 851.648 102.161C853.615 100.203 855.878 98.7213 858.436 97.7147C860.994 96.7082 863.622 96.2049 866.321 96.2049C872.618 96.2049 877.593 98.1202 881.247 101.951C884.902 105.782 886.729 111.416 886.729 118.853C886.729 119.58 886.701 120.377 886.645 121.244C886.588 122.111 886.532 122.88 886.476 123.551H857.972C858.253 126.123 859.462 128.164 861.598 129.674C863.735 131.184 866.602 131.939 870.2 131.939C872.505 131.939 874.768 131.729 876.989 131.31C879.209 130.891 881.023 130.373 882.428 129.758L884.115 139.908C883.44 140.243 882.541 140.579 881.416 140.915C880.292 141.25 879.041 141.544 877.663 141.795C876.286 142.047 874.81 142.257 873.236 142.424C871.662 142.592 870.088 142.676 868.514 142.676C864.522 142.676 861.05 142.089 858.099 140.915C855.147 139.74 852.702 138.132 850.762 136.091C848.822 134.05 847.389 131.631 846.461 128.835C845.534 126.039 845.07 123.019 845.07 119.776ZM857.972 114.995H874.585C874.529 113.932 874.346 112.898 874.037 111.891C873.728 110.884 873.25 109.99 872.604 109.207C871.957 108.424 871.142 107.781 870.158 107.277C869.174 106.774 867.951 106.522 866.49 106.522C865.084 106.522 863.875 106.76 862.863 107.235C861.851 107.711 861.008 108.34 860.334 109.123C859.659 109.906 859.139 110.814 858.773 111.849C858.408 112.884 858.141 113.932 857.972 114.995ZM913.377 132.778C914.614 132.778 915.795 132.75 916.919 132.694C918.044 132.638 918.943 132.554 919.618 132.442V122.964C919.112 122.852 918.353 122.74 917.341 122.628C916.329 122.516 915.401 122.46 914.558 122.46C913.377 122.46 912.267 122.53 911.227 122.67C910.187 122.81 909.273 123.075 908.486 123.467C907.699 123.858 907.081 124.39 906.631 125.061C906.181 125.732 905.956 126.571 905.956 127.577C905.956 129.534 906.617 130.891 907.938 131.645C909.259 132.4 911.072 132.778 913.377 132.778ZM912.365 96.2049C916.076 96.2049 919.168 96.6243 921.642 97.4631C924.115 98.3019 926.097 99.5043 927.587 101.07C929.077 102.636 930.131 104.537 930.749 106.774C931.368 109.011 931.677 111.5 931.677 114.24V140.243C929.878 140.635 927.376 141.096 924.172 141.628C920.967 142.159 917.088 142.424 912.534 142.424C909.667 142.424 907.067 142.173 904.734 141.669C902.4 141.166 900.39 140.341 898.704 139.195C897.017 138.049 895.724 136.553 894.825 134.707C893.925 132.862 893.475 130.597 893.475 127.913C893.475 125.34 893.995 123.159 895.036 121.37C896.076 119.58 897.467 118.154 899.21 117.092C900.953 116.029 902.949 115.26 905.197 114.785C907.446 114.31 909.779 114.072 912.197 114.072C913.827 114.072 915.275 114.142 916.54 114.282C917.805 114.421 918.831 114.603 919.618 114.827V113.653C919.618 111.527 918.971 109.822 917.678 108.536C916.385 107.249 914.136 106.606 910.932 106.606C908.795 106.606 906.687 106.76 904.607 107.068C902.527 107.375 900.728 107.809 899.21 108.368L897.608 98.3019C898.338 98.0782 899.252 97.8406 900.348 97.5889C901.445 97.3373 902.639 97.1136 903.932 96.9179C905.225 96.7221 906.589 96.5544 908.022 96.4146C909.456 96.2748 910.904 96.2049 912.365 96.2049ZM964.482 141.502H954.025C951.157 135.91 948.248 129.367 945.296 121.873C942.345 114.38 939.548 106.215 936.906 97.3792H950.23C950.792 99.5602 951.453 101.923 952.212 104.467C952.971 107.012 953.758 109.584 954.573 112.185C955.388 114.785 956.203 117.315 957.018 119.776C957.834 122.237 958.635 124.473 959.422 126.487C960.153 124.473 960.94 122.237 961.783 119.776C962.626 117.315 963.456 114.785 964.271 112.185C965.086 109.584 965.873 107.012 966.632 104.467C967.391 101.923 968.052 99.5602 968.614 97.3792H981.601C978.958 106.215 976.161 114.38 973.21 121.873C970.258 129.367 967.349 135.91 964.482 141.502ZM985.058 119.776C985.058 115.861 985.663 112.436 986.871 109.5C988.08 106.564 989.668 104.118 991.636 102.161C993.604 100.203 995.867 98.7213 998.425 97.7147C1000.98 96.7082 1003.61 96.2049 1006.31 96.2049C1012.61 96.2049 1017.58 98.1202 1021.24 101.951C1024.89 105.782 1026.72 111.416 1026.72 118.853C1026.72 119.58 1026.69 120.377 1026.63 121.244C1026.58 122.111 1026.52 122.88 1026.46 123.551H997.961C998.242 126.123 999.451 128.164 1001.59 129.674C1003.72 131.184 1006.59 131.939 1010.19 131.939C1012.49 131.939 1014.76 131.729 1016.98 131.31C1019.2 130.891 1021.01 130.373 1022.42 129.758L1024.1 139.908C1023.43 140.243 1022.53 140.579 1021.4 140.915C1020.28 141.25 1019.03 141.544 1017.65 141.795C1016.27 142.047 1014.8 142.257 1013.22 142.424C1011.65 142.592 1010.08 142.676 1008.5 142.676C1004.51 142.676 1001.04 142.089 998.087 140.915C995.136 139.74 992.69 138.132 990.751 136.091C988.811 134.05 987.377 131.631 986.45 128.835C985.522 126.039 985.058 123.019 985.058 119.776ZM997.961 114.995H1014.57C1014.52 113.932 1014.33 112.898 1014.03 111.891C1013.72 110.884 1013.24 109.99 1012.59 109.207C1011.95 108.424 1011.13 107.781 1010.15 107.277C1009.16 106.774 1007.94 106.522 1006.48 106.522C1005.07 106.522 1003.86 106.76 1002.85 107.235C1001.84 107.711 1001 108.34 1000.32 109.123C999.647 109.906 999.127 110.814 998.762 111.849C998.397 112.884 998.129 113.932 997.961 114.995ZM1065.26 98.1342L1063.15 108.452C1062.02 108.172 1060.7 107.879 1059.18 107.571C1057.67 107.263 1056.04 107.11 1054.29 107.11C1053.51 107.11 1052.56 107.18 1051.47 107.319C1050.37 107.459 1049.54 107.613 1048.98 107.781V141.502H1036.42V99.7279C1038.66 98.945 1041.32 98.2041 1044.38 97.505C1047.45 96.806 1050.86 96.4565 1054.63 96.4565C1055.31 96.4565 1056.12 96.4984 1057.08 96.5823C1058.03 96.6662 1058.99 96.7781 1059.94 96.9179C1060.9 97.0577 1061.86 97.2254 1062.81 97.4212C1063.77 97.6169 1064.58 97.8546 1065.26 98.1342ZM1084.74 132.526C1087.04 132.526 1088.67 132.303 1089.63 131.855C1090.58 131.408 1091.06 130.541 1091.06 129.255C1091.06 128.248 1090.44 127.367 1089.21 126.612C1087.97 125.858 1086.09 125.005 1083.56 124.054C1081.59 123.327 1079.8 122.572 1078.2 121.789C1076.6 121.006 1075.24 120.07 1074.11 118.979C1072.99 117.889 1072.12 116.588 1071.5 115.079C1070.88 113.569 1070.57 111.751 1070.57 109.626C1070.57 105.488 1072.12 102.216 1075.21 99.8118C1078.3 97.4072 1082.54 96.2049 1087.94 96.2049C1090.64 96.2049 1093.23 96.4425 1095.7 96.9179C1098.17 97.3932 1100.14 97.9105 1101.6 98.4697L1099.41 108.2C1097.95 107.697 1096.36 107.249 1094.65 106.858C1092.93 106.467 1091.01 106.271 1088.87 106.271C1084.93 106.271 1082.97 107.361 1082.97 109.542C1082.97 110.046 1083.05 110.493 1083.22 110.884C1083.39 111.276 1083.72 111.653 1084.23 112.017C1084.74 112.38 1085.43 112.772 1086.3 113.191C1087.17 113.611 1088.28 114.072 1089.63 114.575C1092.38 115.582 1094.66 116.574 1096.46 117.553C1098.26 118.532 1099.68 119.594 1100.72 120.741C1101.76 121.887 1102.49 123.159 1102.91 124.557C1103.33 125.955 1103.54 127.577 1103.54 129.423C1103.54 133.784 1101.9 137.084 1098.61 139.321C1095.32 141.558 1090.67 142.676 1084.65 142.676C1080.72 142.676 1077.44 142.341 1074.83 141.669C1072.21 140.998 1070.4 140.439 1069.39 139.992L1071.5 129.842C1073.63 130.681 1075.83 131.338 1078.07 131.813C1080.32 132.289 1082.54 132.526 1084.74 132.526Z" fill="url(#paint10_linear_80_6019)"/>
<defs>
<linearGradient id="paint0_linear_80_6019" x1="142.04" y1="66.6267" x2="142.049" y2="67.1587" gradientUnits="userSpaceOnUse">
<stop/>
<stop offset="1"/>
</linearGradient>
<linearGradient id="paint1_linear_80_6019" x1="259.505" y1="17.1805" x2="260.263" y2="60.605" gradientUnits="userSpaceOnUse">
<stop/>
<stop offset="1"/>
</linearGradient>
<linearGradient id="paint2_linear_80_6019" x1="248.361" y1="98.8162" x2="287.326" y2="98.8162" gradientUnits="userSpaceOnUse">
<stop stop-color="#1761A0"/>
<stop offset="1" stop-color="#1761A0"/>
</linearGradient>
<linearGradient id="paint3_linear_80_6019" x1="155.889" y1="155.208" x2="219.645" y2="155.208" gradientUnits="userSpaceOnUse">
<stop stop-color="#1761A0"/>
<stop offset="1" stop-color="#1761A0"/>
</linearGradient>
<linearGradient id="paint4_linear_80_6019" x1="157.062" y1="130.608" x2="286.833" y2="130.608" gradientUnits="userSpaceOnUse">
<stop stop-color="#1761A0"/>
<stop offset="1" stop-color="#1761A0"/>
</linearGradient>
<linearGradient id="paint5_linear_80_6019" x1="287.036" y1="98.8174" x2="326.003" y2="98.8174" gradientUnits="userSpaceOnUse">
<stop stop-color="#1761A0"/>
<stop offset="1" stop-color="#1761A0"/>
</linearGradient>
<linearGradient id="paint6_linear_80_6019" x1="69.9458" y1="103.926" x2="373.455" y2="103.926" gradientUnits="userSpaceOnUse">
<stop stop-color="#74D14C"/>
<stop offset="1" stop-color="#74D14C"/>
</linearGradient>
<linearGradient id="paint7_linear_80_6019" x1="287.01" y1="142.21" x2="373.821" y2="142.21" gradientUnits="userSpaceOnUse">
<stop stop-color="#1761A0"/>
<stop offset="1" stop-color="#1761A0"/>
</linearGradient>
<linearGradient id="paint8_linear_80_6019" x1="116.625" y1="98.8174" x2="155.595" y2="98.8174" gradientUnits="userSpaceOnUse">
<stop stop-color="#1761A0"/>
<stop offset="1" stop-color="#1761A0"/>
</linearGradient>
<linearGradient id="paint9_linear_80_6019" x1="69.8474" y1="141.607" x2="155.348" y2="141.607" gradientUnits="userSpaceOnUse">
<stop stop-color="#1761A0"/>
<stop offset="1" stop-color="#1761A0"/>
</linearGradient>
<linearGradient id="paint10_linear_80_6019" x1="413.382" y1="109.542" x2="1103.54" y2="109.542" gradientUnits="userSpaceOnUse">
<stop stop-color="#1761A0"/>
<stop offset="1" stop-color="#1761A0"/>
</linearGradient>
<clipPath id="clip0_80_6019">
<rect width="58.8964" height="91.2497" fill="white" transform="translate(304.987 8.6521) rotate(88.999)"/>
</clipPath>
</defs>
</svg>
